<?xml version="1.0" encoding="UTF-8"?>
<svg version="1.1" xmlns="http://www.w3.org/2000/svg" width="100" height="100">
<path d="M0 0 C2.23828125 1.84765625 2.23828125 1.84765625 4.3125 4.0625 C5.00988281 4.79597656 5.70726562 5.52945312 6.42578125 6.28515625 C7.20501953 7.13400391 7.20501953 7.13400391 8 8 C10.26952506 6.91949846 12.02941486 5.97438061 13.9375 4.3125 C16 3 16 3 18.2421875 3.01171875 C22.30273695 4.46684483 24.3718444 7.32764977 27.1875 10.5 C32.37851713 16.19461512 32.37851713 16.19461512 39.625 18.1875 C40.40101562 18.13980469 41.17703125 18.09210937 41.9765625 18.04296875 C44 18 44 18 47 20 C46.00057835 28.63029988 44.87508214 37.23331623 43.5 45.8125 C43.38164795 46.58255371 43.2632959 47.35260742 43.14135742 48.14599609 C42.55498198 51.70559316 42.02932087 53.9560187 40 57 C37.45715332 57.37854004 37.45715332 57.37854004 34.20507812 57.38476562 C32.9904187 57.39487671 31.77575928 57.40498779 30.52429199 57.41540527 C29.20658813 57.41238403 27.88888428 57.40936279 26.53125 57.40625 C25.17125191 57.41547772 23.8112646 57.42644641 22.45129395 57.43908691 C17.40025198 57.48217406 12.34922819 57.49312906 7.29803467 57.50531006 C3.03016188 57.51682144 -1.23731338 57.54033483 -5.50502014 57.58000183 C-7.51139849 57.59361531 -9.51787273 57.58919506 -11.52429199 57.58459473 C-12.73895142 57.59470581 -13.95361084 57.60481689 -15.20507812 57.61523438 C-16.27826294 57.61728882 -17.35144775 57.61934326 -18.45715332 57.62145996 C-19.29629272 57.74637817 -20.13543213 57.87129639 -21 58 C-21.66 58.99 -22.32 59.98 -23 61 C-21.2007099 63.34803065 -20.29799711 63.95560733 -17.32344055 64.39872742 C-16.24644394 64.40983047 -15.16944733 64.42093353 -14.05981445 64.43237305 C-12.83877518 64.45216721 -11.6177359 64.47196136 -10.35969543 64.49235535 C-9.04087875 64.49874527 -7.72206207 64.50513519 -6.36328125 64.51171875 C-4.99991737 64.52856431 -3.63656903 64.5467144 -2.27323914 64.56611633 C1.31221662 64.61363653 4.89760938 64.6434324 8.48327637 64.66955566 C12.14327439 64.6993513 15.80305525 64.74588495 19.46289062 64.79101562 C26.64181938 64.87707151 33.82076388 64.94440619 41 65 C40.67 66.65 40.34 68.3 40 70 C38.515 70.495 38.515 70.495 37 71 C36.896875 72.11375 36.79375 73.2275 36.6875 74.375 C36.460625 75.57125 36.23375 76.7675 36 78 C32.53076119 80.31282587 31.07794425 80.42478586 27 80 C24.53190003 78.38296899 24.08058393 77.27532844 23.25 74.4375 C23 72 23 72 24 70 C7.665 70.495 7.665 70.495 -9 71 C-9.33 73.31 -9.66 75.62 -10 78 C-13.46923881 80.31282587 -14.92205575 80.42478586 -19 80 C-20.875 79 -20.875 79 -22 77 C-22.24131207 74.28121737 -22.1347929 71.7407889 -22 69 C-22.8971875 68.9071875 -22.8971875 68.9071875 -23.8125 68.8125 C-26 68 -26 68 -27.8125 66.0625 C-29.07240658 62.81326725 -28.97792662 61.76562739 -28.47753906 58.43725586 C-27.85713802 52.99580632 -28.48336337 48.28371107 -29.546875 42.94140625 C-29.71874329 42.03043686 -29.89061157 41.11946747 -30.06768799 40.18089294 C-30.43089294 38.27463987 -30.80099071 36.36968806 -31.17773438 34.46606445 C-31.7526353 31.549129 -32.29956282 28.627882 -32.84375 25.70507812 C-33.20148066 23.846037 -33.5607991 21.98730054 -33.921875 20.12890625 C-34.08451843 19.25706192 -34.24716187 18.38521759 -34.41473389 17.48695374 C-34.577901 16.67858566 -34.74106812 15.87021759 -34.90917969 15.03735352 C-35.11688995 13.97340111 -35.11688995 13.97340111 -35.32879639 12.88795471 C-36.12494601 10.64855313 -37.22509861 9.5466171 -39 8 C-39.33 8.33 -39.66 8.66 -40 9 C-43 9.125 -43 9.125 -46 9 C-47 8 -47 8 -47.1875 5.0625 C-47 2 -47 2 -45 0 C-40.44275111 -0.93825712 -37.50356866 1.20237812 -33.76953125 3.515625 C-31.73315085 5.22384697 -30.91194891 6.5120163 -30 9 C-30 10.32 -30 11.64 -30 13 C-25.49358811 13.46128626 -21.13961828 13.55221062 -17.33349609 10.79101562 C-14.51071014 8.25870105 -11.96446782 5.50771407 -9.43359375 2.6875 C-6.05215605 -1.04673618 -4.76144379 -1.46992873 0 0 Z " fill="#2D7AD4" transform="translate(47,12)"/>
<path d="M0 0 C2.23828125 1.84765625 2.23828125 1.84765625 4.3125 4.0625 C5.00988281 4.79597656 5.70726562 5.52945312 6.42578125 6.28515625 C7.20501953 7.13400391 7.20501953 7.13400391 8 8 C10.26952506 6.91949846 12.02941486 5.97438061 13.9375 4.3125 C16 3 16 3 18.2421875 3.01171875 C22.30273695 4.46684483 24.3718444 7.32764977 27.1875 10.5 C32.37851713 16.19461512 32.37851713 16.19461512 39.625 18.1875 C40.40101562 18.13980469 41.17703125 18.09210937 41.9765625 18.04296875 C44 18 44 18 47 20 C46.67 22.31 46.34 24.62 46 27 C32.21187955 27.31290757 18.60468034 26.46201391 4.86474609 25.34594727 C1.34655036 25.06018924 -2.17230477 24.78412385 -5.69140625 24.50976562 C-7.95316855 24.33128018 -10.21488897 24.15226308 -12.4765625 23.97265625 C-14.03608139 23.8491555 -14.03608139 23.8491555 -15.62710571 23.72315979 C-21.10722139 23.27684387 -26.55021352 22.72980243 -32 22 C-32.33 22.99 -32.66 23.98 -33 25 C-34.32 19.72 -35.64 14.44 -37 9 C-39.04177296 9 -41.08363528 9.02167271 -43.125 9.0625 C-46 9 -46 9 -47 8 C-47.1875 5.0625 -47.1875 5.0625 -47 2 C-45 0 -45 0 -42.875 -0.4375 C-38.63287385 0.20804094 -35.27437276 2.25328554 -32 5 C-30.04156691 8.03958701 -30 9.19464305 -30 13 C-25.49358811 13.46128626 -21.13961828 13.55221062 -17.33349609 10.79101562 C-14.51071014 8.25870105 -11.96446782 5.50771407 -9.43359375 2.6875 C-6.05215605 -1.04673618 -4.76144379 -1.46992873 0 0 Z " fill="#46A3E8" transform="translate(47,12)"/>
<path d="M0 0 C1.98 0.66 3.96 1.32 6 2 C5.34 3.32 4.68 4.64 4 6 C5.7992901 8.34803065 6.70200289 8.95560733 9.67655945 9.39872742 C11.29205437 9.415382 11.29205437 9.415382 12.94018555 9.43237305 C14.77174446 9.46206429 14.77174446 9.46206429 16.64030457 9.49235535 C17.95912125 9.49874527 19.27793793 9.50513519 20.63671875 9.51171875 C22.00008263 9.52856431 23.36343097 9.5467144 24.72676086 9.56611633 C28.31221662 9.61363653 31.89760938 9.6434324 35.48327637 9.66955566 C39.14327439 9.6993513 42.80305525 9.74588495 46.46289062 9.79101562 C53.64181938 9.87707151 60.82076388 9.94440619 68 10 C67.67 11.65 67.34 13.3 67 15 C66.01 15.33 65.02 15.66 64 16 C63.896875 17.11375 63.79375 18.2275 63.6875 19.375 C63.460625 20.57125 63.23375 21.7675 63 23 C59.53076119 25.31282587 58.07794425 25.42478586 54 25 C51.53190003 23.38296899 51.08058393 22.27532844 50.25 19.4375 C50 17 50 17 51 15 C34.665 15.495 34.665 15.495 18 16 C17.67 18.31 17.34 20.62 17 23 C13.53076119 25.31282587 12.07794425 25.42478586 8 25 C6.125 24 6.125 24 5 22 C4.75868793 19.28121737 4.8652071 16.7407889 5 14 C4.401875 13.938125 3.80375 13.87625 3.1875 13.8125 C1 13 1 13 -0.8125 10.875 C-2.33790545 7.18191312 -1.88719257 4.84450112 -1 1 C-0.67 0.67 -0.34 0.34 0 0 Z " fill="#ADC1D1" transform="translate(20,67)"/>
<path d="M0 0 C2.23828125 1.84765625 2.23828125 1.84765625 4.3125 4.0625 C5.00988281 4.79597656 5.70726563 5.52945312 6.42578125 6.28515625 C7.20501953 7.13400391 7.20501953 7.13400391 8 8 C10.26952506 6.91949846 12.02941486 5.97438061 13.9375 4.3125 C16 3 16 3 18.203125 3.01171875 C22.37600235 4.48621312 24.80249429 7.33899066 27.8125 10.5 C28.40998047 11.10714844 29.00746094 11.71429688 29.62304688 12.33984375 C34 16.83184821 34 16.83184821 34 18 C15.52227932 17.57616684 -2.64854577 16.11716907 -21 14 C-19.90751953 12.90945312 -19.90751953 12.90945312 -18.79296875 11.796875 C-17.06109513 10.06257918 -15.33364961 8.3238343 -13.61328125 6.578125 C-12.85402344 5.80984375 -12.09476563 5.0415625 -11.3125 4.25 C-10.54550781 3.47140625 -9.77851562 2.6928125 -8.98828125 1.890625 C-5.75280776 -1.18593525 -4.22685891 -1.30489441 0 0 Z " fill="#F6C342" transform="translate(47,12)"/>
<path d="M0 0 C4.12983704 1.51505353 6.57642734 4.36763868 9.5703125 7.51171875 C10.16779297 8.11886719 10.76527344 8.72601563 11.38085938 9.3515625 C15.7578125 13.84356696 15.7578125 13.84356696 15.7578125 15.01171875 C12.71232116 15.00568807 9.67689673 14.95813422 6.6328125 14.88671875 C5.776875 14.88929687 4.9209375 14.891875 4.0390625 14.89453125 C-0.67979964 14.74933549 -3.44205419 14.37435206 -6.859375 10.95703125 C-8.03886719 9.49910156 -8.03886719 9.49910156 -9.2421875 8.01171875 C-7.60350345 3.84052299 -4.80038646 0.02508913 0 0 Z " fill="#D29100" transform="translate(65.2421875,14.98828125)"/>
<path d="M0 0 C2.3125 -0.36328125 2.3125 -0.36328125 5 -0.3125 C5.886875 -0.30863281 6.77375 -0.30476563 7.6875 -0.30078125 C10 0 10 0 12 2 C11.8125 5.5 11.8125 5.5 11 9 C7.53076119 11.31282587 6.07794425 11.42478586 2 11 C-0.42840184 9.4089781 -0.91447755 8.26314599 -1.8125 5.5 C-2 3 -2 3 0 0 Z " fill="#5B5E61" transform="translate(72,81)"/>
<path d="M0 0 C0.89589844 -0.01417969 1.79179688 -0.02835937 2.71484375 -0.04296875 C5.0625 0.1875 5.0625 0.1875 7.0625 2.1875 C6.875 5.6875 6.875 5.6875 6.0625 9.1875 C2.59326119 11.50032587 1.14044425 11.61228586 -2.9375 11.1875 C-4.8125 10.125 -4.8125 10.125 -5.9375 8.1875 C-6.1875 4.5625 -6.1875 4.5625 -5.9375 1.1875 C-4.27188601 -0.47811399 -2.27787295 0.01634055 0 0 Z " fill="#5B5E60" transform="translate(30.9375,80.8125)"/>
<path d="M0 0 C2.4375 0.1875 2.4375 0.1875 3.4375 1.1875 C3.5625 4.6875 3.5625 4.6875 3.4375 8.1875 C2.4375 9.1875 2.4375 9.1875 -0.5625 9.3125 C-3.5625 9.1875 -3.5625 9.1875 -4.5625 8.1875 C-4.75 5.25 -4.75 5.25 -4.5625 2.1875 C-2.5625 0.1875 -2.5625 0.1875 0 0 Z " fill="#1190DC" transform="translate(4.5625,11.8125)"/>
<path d="M0 0 C2.57531492 0.34801553 4.54832896 0.70964005 6.75 2.125 C8.61159182 4.91738772 8.68969198 7.71073498 9 11 C6.75 11.375 6.75 11.375 4 11 C1.44754682 8.03363549 0.09182604 6.05599941 -0.25 2.125 C-0.1675 1.42375 -0.085 0.7225 0 0 Z " fill="#AFC4D5" transform="translate(8,14)"/>
<path d="M0 0 C3.36179774 1.44077046 5.59156268 3.24750021 8 6 C8 6.66 8 7.32 8 8 C4.63820226 6.55922954 2.40843732 4.75249979 0 2 C0 1.34 0 0.68 0 0 Z " fill="#C28A09" transform="translate(56,21)"/>
</svg>
