<?xml version="1.0" encoding="UTF-8"?>
<svg version="1.1" xmlns="http://www.w3.org/2000/svg" width="100" height="100">
<path d="M0 0 C1.55566406 1.67407227 1.55566406 1.67407227 3.015625 3.81640625 C3.54414062 4.58017578 4.07265625 5.34394531 4.6171875 6.13085938 C5.15601563 6.93330078 5.69484375 7.73574219 6.25 8.5625 C6.80429687 9.36880859 7.35859375 10.17511719 7.9296875 11.00585938 C9.29659296 12.99729923 10.65272637 14.99524923 12 17 C12.61875 16.505 13.2375 16.01 13.875 15.5 C16 14 16 14 18 14 C18 37.1 18 60.2 18 84 C10.41 84 2.82 84 -5 84 C-5.01401855 81.04981934 -5.01401855 81.04981934 -5.02832031 78.04003906 C-5.06402697 71.498033 -5.11793731 64.95636865 -5.18390274 58.41460037 C-5.22319575 54.45330544 -5.25547223 50.49222676 -5.27099609 46.53076172 C-5.28628395 42.69846081 -5.32093928 38.86675516 -5.36830902 35.03472137 C-5.38299918 33.58216311 -5.39103381 32.12951981 -5.39188385 30.67688751 C-5.4016015 22.38743315 -6.07601126 15.22097716 -9.24407959 7.45916748 C-10.0695336 4.77379263 -10.11414047 3.5592711 -9 1 C-5.66324035 -0.89383656 -3.57649129 -1.38331907 0 0 Z " fill="#1C292D" transform="translate(31,10)"/>
<path d="M0 0 C3.77001757 0.40978452 5.80106814 0.86737876 9 3 C8.71259058 4.37589617 8.41982258 5.75067322 8.125 7.125 C7.96257812 7.89070313 7.80015625 8.65640625 7.6328125 9.4453125 C7 12 7 12 5.9803772 14.73269653 C4.92372281 18.25420901 4.72271368 21.16029183 4.68115234 24.83154297 C4.67110672 25.48590836 4.6610611 26.14027374 4.65071106 26.81446838 C4.62005338 28.95703325 4.60289317 31.0994742 4.5859375 33.2421875 C4.56721177 34.73577935 4.54763731 36.22936078 4.5272522 37.72293091 C4.47607322 41.63877194 4.43637173 45.55464721 4.39910889 49.47064209 C4.3589796 53.47270073 4.30792812 57.47461866 4.2578125 61.4765625 C4.16122185 69.31761899 4.07777403 77.15873427 4 85 C-3.59 85 -11.18 85 -19 85 C-19 61.9 -19 38.8 -19 15 C-17.02 15.99 -17.02 15.99 -15 17 C-14.01 17 -13.02 17 -12 17 C-10.57490815 15.52540739 -10.57490815 15.52540739 -9.3359375 13.53515625 C-8.85382812 12.81779297 -8.37171875 12.10042969 -7.875 11.36132812 C-7.38 10.60271484 -6.885 9.84410156 -6.375 9.0625 C-5.38339932 7.5738277 -4.3912408 6.08552678 -3.3984375 4.59765625 C-2.74367432 3.60004272 -2.74367432 3.60004272 -2.07568359 2.58227539 C-1 1 -1 1 0 0 Z M-13 26 C-13.0825 27.753125 -13.165 29.50625 -13.25 31.3125 C-13.29640625 32.29863281 -13.3428125 33.28476562 -13.390625 34.30078125 C-13.25729596 37.11097683 -13.25729596 37.11097683 -11.1484375 38.8671875 C-9.01578558 40.23341465 -9.01578558 40.23341465 -6.375 39.8125 C-3.84979635 39.14323449 -3.84979635 39.14323449 -2 37 C-1.75684344 34.33050591 -1.75684344 34.33050591 -1.875 31.375 C-1.91625 29.60125 -1.9575 27.8275 -2 26 C-5.63 26 -9.26 26 -13 26 Z " fill="#1C292D" transform="translate(70,9)"/>
<path d="M0 0 C2.1703142 2.70056359 3.62258187 5.16095841 4.82421875 8.40625 C5.13037109 9.23253906 5.43652344 10.05882812 5.75195312 10.91015625 C6.06068359 11.76480469 6.36941406 12.61945312 6.6875 13.5 C7.00783203 14.35464844 7.32816406 15.20929687 7.65820312 16.08984375 C9.10303317 20.03925124 10 22.72288522 10 27 C5.05 29.31 0.1 31.62 -5 34 C-5.78340722 10.75891915 -5.78340722 10.75891915 -1 1 C-0.67 0.67 -0.34 0.34 0 0 Z " fill="#1C292D" transform="translate(81,14)"/>
<path d="M0 0 C2.8020753 1.40103765 3.0137578 2.83607602 4.125 5.75 C7.12542106 14.90684058 6.32083847 24.48179191 6 34 C1.05 31.69 -3.9 29.38 -9 27 C-7.875 19.125 -7.875 19.125 -6.15234375 14.94140625 C-5.79462891 14.06162109 -5.43691406 13.18183594 -5.06835938 12.27539062 C-4.69517578 11.38013672 -4.32199219 10.48488281 -3.9375 9.5625 C-3.56044922 8.64017578 -3.18339844 7.71785156 -2.79492188 6.76757812 C-1.87031 4.5087162 -0.93855136 2.2530973 0 0 Z " fill="#1C292D" transform="translate(18,14)"/>
<path d="M0 0 C7.92 0 15.84 0 24 0 C22.07859132 3.84281736 20.4073184 5.80431927 17.375 8.75 C16.55773437 9.54921875 15.74046875 10.3484375 14.8984375 11.171875 C14.27195312 11.77515625 13.64546875 12.3784375 13 13 C9.36938333 11.46781315 7.0136227 9.2816856 4.25 6.5 C3.45078125 5.7059375 2.6515625 4.911875 1.828125 4.09375 C0 2 0 2 0 0 Z " fill="#182427" transform="translate(38,6)"/>
<path d="M0 0 C-1.48592785 4.12842841 -3.49332361 7.63213592 -5.875 11.3125 C-6.55304687 12.38113281 -7.23109375 13.44976562 -7.9296875 14.55078125 C-8.95449219 15.76314453 -8.95449219 15.76314453 -10 17 C-11.32 17 -12.64 17 -14 17 C-14.66 16.34 -15.32 15.68 -16 15 C-15.8949688 10.68417238 -12.56974273 8.09122764 -9.6875 5.25 C-9.20087891 4.74339844 -8.71425781 4.23679687 -8.21289062 3.71484375 C-5.1891678 0.69519054 -4.45294674 0 0 0 Z " fill="#1B282C" transform="translate(68,7)"/>
<path d="M0 0 C4.95745581 0.39042234 7.5454374 2.90806628 10.875 6.3125 C11.38546875 6.79912109 11.8959375 7.28574219 12.421875 7.78710938 C15.97980805 11.35946648 15.97980805 11.35946648 16.0703125 14.23046875 C14.71814963 16.4659789 13.40373599 17.06952155 11 18 C9.72651788 16.27278316 8.45632943 14.54313762 7.1875 12.8125 C6.12595703 11.36810547 6.12595703 11.36810547 5.04296875 9.89453125 C0 2.74952199 0 2.74952199 0 0 Z " fill="#1A272B" transform="translate(32,7)"/>
<path d="M0 0 C2.31 0 4.62 0 7 0 C7.1953125 6.0546875 7.1953125 6.0546875 7 8 C6.34 8.66 5.68 9.32 5 10 C1.46428571 9.46428571 1.46428571 9.46428571 0 8 C-0.14115161 5.32941149 -0.04247107 2.67567762 0 0 Z " fill="#1C2A2D" transform="translate(59,37)"/>
</svg>
