<?xml version="1.0" encoding="UTF-8"?>
<svg version="1.1" xmlns="http://www.w3.org/2000/svg" width="100" height="100">
<path d="M0 0 C1.30808121 -0.01253311 2.61616241 -0.02506622 3.96388245 -0.03797913 C5.3834025 -0.02571175 6.802913 -0.01229187 8.22241211 0.00219727 C9.68542151 0.00136813 11.14843082 -0.00109294 12.61143494 -0.00511169 C15.67223265 -0.00796568 18.73229695 0.0066926 21.79296875 0.03417969 C25.71299325 0.06829342 29.63170942 0.06223125 33.55179691 0.04351711 C36.57078428 0.0329417 39.58946792 0.04188905 42.60842705 0.05690193 C44.05368586 0.06207829 45.49897647 0.06160853 46.94423103 0.05535698 C48.96416461 0.04989818 50.98411403 0.07314449 53.00390625 0.09765625 C54.15242569 0.10385483 55.30094513 0.11005341 56.48426819 0.11643982 C60.06155214 0.73990947 61.21039482 1.82588113 63.43725586 4.63110352 C64.75954775 7.2756873 64.5340278 9.30871653 64.49975586 12.25610352 C64.49073242 13.25899414 64.48170898 14.26188477 64.47241211 15.29516602 C64.46081055 16.06602539 64.44920898 16.83688477 64.43725586 17.63110352 C65.20038086 17.71360352 65.96350586 17.79610352 66.74975586 17.88110352 C70.08355851 18.81146705 70.70135753 19.68710061 72.43725586 22.63110352 C72.83166504 25.24241638 72.83166504 25.24241638 72.85717773 28.23828125 C72.88104553 29.92539467 72.88104553 29.92539467 72.90539551 31.64659119 C72.90559692 32.85706619 72.90579834 34.0675412 72.90600586 35.31469727 C72.91742615 37.18618187 72.91742615 37.18618187 72.92907715 39.09547424 C72.93988428 41.73438346 72.94409729 44.37239702 72.93823242 47.01123047 C72.93233705 50.38541416 72.96292323 53.75815852 73.0033493 57.13206387 C73.03548239 60.35958118 73.03110999 63.58704467 73.03100586 66.81469727 C73.04740112 68.02314804 73.06379639 69.23159882 73.08068848 70.47666931 C73.01260534 78.7289123 73.01260534 78.7289123 70.35717773 82.89282227 C66.70509303 85.06697302 64.36693114 85.26240798 60.12475586 85.26000977 C59.08774536 85.2636277 59.08774536 85.2636277 58.02978516 85.26731873 C56.57407878 85.26634308 55.118334 85.25301641 53.6628418 85.22802734 C51.44312675 85.19369432 49.22739326 85.20738194 47.00756836 85.22680664 C45.5882807 85.21990766 44.16900324 85.21023478 42.74975586 85.19750977 C41.46713867 85.1866333 40.18452148 85.17575684 38.86303711 85.16455078 C34.70486657 84.51705915 33.08242433 83.9322412 30.43725586 80.63110352 C29.84102915 77.35661826 29.96566288 74.19513259 30.12475586 70.88110352 C30.14731445 69.99293945 30.16987305 69.10477539 30.19311523 68.18969727 C30.25193034 66.0017754 30.33404318 63.8173068 30.43725586 61.63110352 C28.6135144 61.67037964 28.6135144 61.67037964 26.75292969 61.71044922 C22.23374905 61.80108111 17.71464842 61.85839999 13.19482422 61.90576172 C11.24025963 61.93087633 9.28578869 61.96497483 7.33154297 62.00830078 C4.51888918 62.06908786 1.70747884 62.09734334 -1.10571289 62.11938477 C-1.97673141 62.14519119 -2.84774994 62.17099762 -3.74516296 62.19758606 C-8.14622632 62.19961182 -10.00860915 62.0399318 -13.65380859 59.35058594 C-15.56274414 56.63110352 -15.56274414 56.63110352 -15.56274414 52.63110352 C-14.24274414 52.63110352 -12.92274414 52.63110352 -11.56274414 52.63110352 C-11.5738472 52.05338699 -11.58495026 51.47567047 -11.59638977 50.88044739 C-11.70709225 44.86218746 -11.78245619 38.84421716 -11.83740234 32.82519531 C-11.86253137 30.57963308 -11.89664029 28.33415252 -11.93994141 26.08886719 C-12.0006619 22.85925134 -12.02897045 19.63071768 -12.05102539 16.40063477 C-12.07683182 15.39837357 -12.10263824 14.39611237 -12.12922668 13.36347961 C-12.12960434 12.42288193 -12.12998199 11.48228424 -12.13037109 10.51318359 C-12.14147415 9.6893367 -12.15257721 8.86548981 -12.16401672 8.01667786 C-10.56044916 1.65445589 -6.0136323 0.00503228 0 0 Z " fill="#E38B3C" transform="translate(19.562744140625,7.368896484375)"/>
<path d="M0 0 C20.46 0 40.92 0 62 0 C62 3.3 62 6.6 62 10 C60.44667969 10.06058594 58.89335938 10.12117188 57.29296875 10.18359375 C55.25780305 10.26800154 53.22264729 10.35264943 51.1875 10.4375 C49.65125977 10.49647461 49.65125977 10.49647461 48.08398438 10.55664062 C47.10107422 10.59853516 46.11816406 10.64042969 45.10546875 10.68359375 C44.19949951 10.72025146 43.29353027 10.75690918 42.36010742 10.79467773 C39.84951218 10.9208205 39.84951218 10.9208205 37 12 C35.85705686 15.42882941 35.79035528 18.24082838 35.68359375 21.85546875 C35.64548584 23.06614014 35.60737793 24.27681152 35.56811523 25.52416992 C35.52501221 27.06306885 35.48190918 28.60196777 35.4375 30.1875 C35.293125 35.075625 35.14875 39.96375 35 45 C23.45 45 11.9 45 0 45 C0 30.15 0 15.3 0 0 Z " fill="#BADDFA" transform="translate(15,15)"/>
<path d="M0 0 C1.16781006 0.00523682 2.33562012 0.01047363 3.53881836 0.01586914 C4.67327393 0.0183667 5.80772949 0.02086426 6.9765625 0.0234375 C9.15560181 0.03709351 9.15560181 0.03709351 11.37866211 0.05102539 C15.97803711 0.07165039 20.57741211 0.09227539 25.31616211 0.11352539 C25.31616211 16.61352539 25.31616211 33.11352539 25.31616211 50.11352539 C20.71678711 50.13415039 16.11741211 50.15477539 11.37866211 50.17602539 C9.92596924 50.18512939 8.47327637 50.1942334 6.9765625 50.20361328 C5.84210693 50.20611084 4.70765137 50.2086084 3.53881836 50.21118164 C1.78710327 50.21903687 1.78710327 50.21903687 0 50.22705078 C-2.68383789 50.11352539 -2.68383789 50.11352539 -3.68383789 49.11352539 C-3.78214935 47.61482491 -3.81182245 46.11154001 -3.81323242 44.60961914 C-3.81638458 43.65192627 -3.81953674 42.6942334 -3.82278442 41.70751953 C-3.82076019 40.66587646 -3.81873596 39.6242334 -3.81665039 38.55102539 C-3.81760712 37.48940186 -3.81856384 36.42777832 -3.81954956 35.33398438 C-3.82023153 33.08439068 -3.81837608 30.83479502 -3.81420898 28.58520508 C-3.80886099 25.12845468 -3.81415343 21.67183422 -3.82055664 18.21508789 C-3.81989586 16.0354001 -3.81861471 13.85571239 -3.81665039 11.67602539 C-3.81867462 10.63438232 -3.82069885 9.59273926 -3.82278442 8.51953125 C-3.81963226 7.56183838 -3.8164801 6.60414551 -3.81323242 5.61743164 C-3.81243683 4.76995361 -3.81164124 3.92247559 -3.81082153 3.04931641 C-3.60957825 -0.01851927 -3.10033252 0.13114297 0 0 Z " fill="#FEF1DD" transform="translate(59.683837890625,30.886474609375)"/>
<path d="M0 0 C1.30808121 -0.01253311 2.61616241 -0.02506622 3.96388245 -0.03797913 C5.3834025 -0.02571175 6.802913 -0.01229187 8.22241211 0.00219727 C9.68542151 0.00136813 11.14843082 -0.00109294 12.61143494 -0.00511169 C15.67223265 -0.00796568 18.73229695 0.0066926 21.79296875 0.03417969 C25.71299325 0.06829342 29.63170942 0.06223125 33.55179691 0.04351711 C36.57078428 0.0329417 39.58946792 0.04188905 42.60842705 0.05690193 C44.05368586 0.06207829 45.49897647 0.06160853 46.94423103 0.05535698 C48.96416461 0.04989818 50.98411403 0.07314449 53.00390625 0.09765625 C54.15242569 0.10385483 55.30094513 0.11005341 56.48426819 0.11643982 C60.06155214 0.73990947 61.21039482 1.82588113 63.43725586 4.63110352 C64.75954775 7.2756873 64.5340278 9.30871653 64.49975586 12.25610352 C64.49073242 13.25899414 64.48170898 14.26188477 64.47241211 15.29516602 C64.46081055 16.06602539 64.44920898 16.83688477 64.43725586 17.63110352 C62.12725586 17.63110352 59.81725586 17.63110352 57.43725586 17.63110352 C57.43725586 14.33110352 57.43725586 11.03110352 57.43725586 7.63110352 C36.97725586 7.63110352 16.51725586 7.63110352 -4.56274414 7.63110352 C-4.56274414 22.48110352 -4.56274414 37.33110352 -4.56274414 52.63110352 C6.98725586 52.63110352 18.53725586 52.63110352 30.43725586 52.63110352 C30.43725586 55.60110352 30.43725586 58.57110352 30.43725586 61.63110352 C24.68985828 61.75487956 18.94323959 61.845526 13.19482422 61.90576172 C11.24025963 61.93087633 9.28578869 61.96497483 7.33154297 62.00830078 C4.51888918 62.06908786 1.70747884 62.09734334 -1.10571289 62.11938477 C-1.97673141 62.14519119 -2.84774994 62.17099762 -3.74516296 62.19758606 C-8.14622632 62.19961182 -10.00860915 62.0399318 -13.65380859 59.35058594 C-15.56274414 56.63110352 -15.56274414 56.63110352 -15.56274414 52.63110352 C-14.24274414 52.63110352 -12.92274414 52.63110352 -11.56274414 52.63110352 C-11.5738472 52.05338699 -11.58495026 51.47567047 -11.59638977 50.88044739 C-11.70709225 44.86218746 -11.78245619 38.84421716 -11.83740234 32.82519531 C-11.86253137 30.57963308 -11.89664029 28.33415252 -11.93994141 26.08886719 C-12.0006619 22.85925134 -12.02897045 19.63071768 -12.05102539 16.40063477 C-12.07683182 15.39837357 -12.10263824 14.39611237 -12.12922668 13.36347961 C-12.12960434 12.42288193 -12.12998199 11.48228424 -12.13037109 10.51318359 C-12.14147415 9.6893367 -12.15257721 8.86548981 -12.16401672 8.01667786 C-10.56044916 1.65445589 -6.0136323 0.00503228 0 0 Z " fill="#58737F" transform="translate(19.562744140625,7.368896484375)"/>
<path d="M0 0 C15.18 0 30.36 0 46 0 C46 2.97 46 5.94 46 9 C40.25260242 9.12377604 34.50598373 9.21442248 28.75756836 9.2746582 C26.80300377 9.29977281 24.84853283 9.33387131 22.89428711 9.37719727 C20.08163332 9.43798434 17.27022298 9.46623983 14.45703125 9.48828125 C13.58601273 9.51408768 12.7149942 9.5398941 11.81758118 9.56648254 C7.41651782 9.56850831 5.55413499 9.40882829 1.90893555 6.71948242 C0 4 0 4 0 0 Z " fill="#394A52" transform="translate(4,60)"/>
<path d="M0 0 C2.0625 0.4375 2.0625 0.4375 4 1 C4.33 2.32 4.66 3.64 5 5 C3.35 5.33 1.7 5.66 0 6 C-0.38218767 4.34385343 -0.71395102 2.67542976 -1 1 C-0.67 0.67 -0.34 0.34 0 0 Z " fill="#AB672B" transform="translate(69,83)"/>
</svg>
