<?xml version="1.0" encoding="UTF-8"?>
<svg version="1.1" xmlns="http://www.w3.org/2000/svg" width="100" height="100">
<path d="M0 0 C8.52477381 5.01108443 13.88346208 11.90708441 16.55859375 21.4453125 C18.82116109 34.19796477 14.32505731 46.46767735 7.09033203 57.00341797 C4.27541417 60.88564508 1.28319419 64.61049926 -1.75390625 68.3203125 C-2.35976563 69.08085938 -2.965625 69.84140625 -3.58984375 70.625 C-6.92869439 74.70958378 -9.35475002 77.00737908 -14.62890625 77.6953125 C-20.53998356 76.98598322 -24.2459167 73.13076194 -27.78686523 68.65209961 C-28.22973877 68.06823486 -28.6726123 67.48437012 -29.12890625 66.8828125 C-29.60078369 66.26736572 -30.07266113 65.65191895 -30.55883789 65.01782227 C-38.99325351 53.8486156 -47.92552406 41.18163887 -47.06640625 26.49609375 C-45.69883632 16.97438811 -42.06802719 9.63630289 -34.5078125 3.49609375 C-24.19610304 -3.68558586 -11.62309291 -5.45846399 0 0 Z M-23.56640625 23.0078125 C-25.3147331 26.41244899 -25.55896452 29.63168187 -24.75390625 33.3203125 C-22.57816209 36.01136448 -20.84324769 37.77564178 -17.75390625 39.3203125 C-13.09981724 39.7340093 -10.50151149 39.13101643 -6.75390625 36.3203125 C-4.2822657 32.61285168 -3.97539491 29.61834388 -4.75390625 25.3203125 C-6.10149297 22.51685083 -7.30060788 21.46042385 -9.75390625 19.3203125 C-15.96815117 17.43384529 -18.98014639 18.73784642 -23.56640625 23.0078125 Z " fill="#FC3C4F" transform="translate(64.75390625,11.6796875)"/>
<path d="M0 0 C3.04426204 9.51331887 -0.52810715 19.22334168 -4.5625 27.875 C-8.22429563 34.89724648 -13.00368608 40.89701069 -18 47 C-18.60585938 47.76054688 -19.21171875 48.52109375 -19.8359375 49.3046875 C-22.32160429 52.34552859 -24.33597175 54.55222854 -28 56 C-29.32 56 -30.64 56 -32 56 C-32.55177718 53.17980554 -32.7078933 51.74246775 -32 49 C-30.05632153 46.45437856 -27.8743513 44.23984803 -25.65234375 41.93359375 C-16.78007205 32.12052151 -10.54217227 21.09113288 -8 8.0625 C-7.02046109 3.22548484 -5.33539606 0 0 0 Z " fill="#DA3344" transform="translate(81,33)"/>
<path d="M0 0 C1.05348633 0.00080566 2.10697266 0.00161133 3.19238281 0.00244141 C23.20375743 0.15921254 23.20375743 0.15921254 30.3125 4.1875 C30.3125 5.1775 30.3125 6.1675 30.3125 7.1875 C21.0359298 10.18192229 12.32653859 10.65636321 2.68554688 10.57861328 C0.3158209 10.56252255 -2.05220031 10.57854597 -4.421875 10.59765625 C-13.25298478 10.60803114 -21.20011763 9.9271771 -29.6875 7.1875 C-29.3575 5.8675 -29.0275 4.5475 -28.6875 3.1875 C-19.12054035 0.57832919 -9.90117203 -0.00787057 0 0 Z " fill="#000000" transform="translate(49.6875,89.8125)"/>
<path d="M0 0 C1.24523438 0.01804687 2.49046875 0.03609375 3.7734375 0.0546875 C5.18496094 0.08949219 5.18496094 0.08949219 6.625 0.125 C6.875 2.4375 6.875 2.4375 6.625 5.125 C3.96463997 7.87058895 1.65305866 8.48876103 -2.0625 8.9375 C-9.77053403 10.34515275 -15.25206405 14.14150151 -19.875 20.4375 C-22.32097485 24.38971549 -22.83079107 27.53150778 -23.0390625 32.10546875 C-23.60865699 35.52965887 -25.71468729 37.11354405 -28.375 39.125 C-29.035 39.125 -29.695 39.125 -30.375 39.125 C-30.375 38.135 -30.375 37.145 -30.375 36.125 C-31.035 36.125 -31.695 36.125 -32.375 36.125 C-32.86668139 25.96358458 -31.03292525 18.08821938 -24.40234375 10.16796875 C-17.39763143 3.10927021 -9.96242399 -0.18797026 0 0 Z " fill="#FD717F" transform="translate(50.375,8.875)"/>
<path d="M0 0 C0.5 2.1875 0.5 2.1875 0 5 C-1.88106052 6.3638833 -3.86730599 7.41144086 -5.90234375 8.53125 C-8.89133473 10.6241003 -10.20051378 13.20327595 -11.796875 16.42578125 C-12.19390625 16.94527344 -12.5909375 17.46476562 -13 18 C-14.32 18 -15.64 18 -17 18 C-17.55615882 14.3293518 -16.9169912 12.85272631 -15.0625 9.5625 C-11.50241519 4.91092787 -6.04330467 0 0 0 Z " fill="#FEF4F5" transform="translate(42,15)"/>
</svg>
