<?xml version="1.0" encoding="UTF-8"?>
<svg version="1.1" xmlns="http://www.w3.org/2000/svg" width="100" height="100">
<path d="M0 0 C1.98 0 3.96 0 6 0 C6.495 1.3303125 6.495 1.3303125 7 2.6875 C8.99647221 5.99415709 9.68816897 6.6132236 12.875 8.375 C17.49961458 11.10888818 20.27938819 13.82280196 22 19 C22.22176081 21.66667371 22.3710959 24.26842416 22.4375 26.9375 C22.64752801 34.35792506 24.17801553 38.40305374 29 44 C30.36368049 45.65612114 31.71114904 47.32304874 33.04516602 49.00317383 C33.95806906 50.14850458 34.88788471 51.28059991 35.83569336 52.3972168 C37.86538266 54.90339157 38.97942091 56.48258293 39.109375 59.75 C38 62 38 62 35.70703125 63.328125 C34.75183594 63.63234375 33.79664062 63.9365625 32.8125 64.25 C31.81089844 64.5696875 30.80929688 64.889375 29.77734375 65.21875 C23.75609808 66.91248999 18.21150337 67.12423007 12 67 C11.9071875 68.60875 11.9071875 68.60875 11.8125 70.25 C11 74 11 74 8.8125 76.4375 C5.45611204 78.30215998 3.7822566 78.6303761 0 78 C-2.8125 76.4375 -2.8125 76.4375 -5 74 C-5.8125 70.25 -5.8125 70.25 -6 67 C-7.8253125 67.0928125 -7.8253125 67.0928125 -9.6875 67.1875 C-16.62730145 67.19851556 -26.23885237 66.16306705 -32 62 C-33.03515625 59.765625 -33.03515625 59.765625 -33 57 C-31.55947886 54.68797855 -30.1814899 52.80460099 -28.4375 50.75 C-27.5093229 49.58550638 -26.58223865 48.42014085 -25.65625 47.25390625 C-24.13986303 45.381512 -22.60426903 43.54066941 -21.03125 41.71484375 C-16.80236624 36.33545485 -16.54952108 31.44012489 -16.38476562 24.81787109 C-16.18182821 19.03278367 -15.23718448 15.05070692 -11 11 C-8.98615393 9.62210532 -6.93961822 8.4107229 -4.8046875 7.23046875 C-2.08984043 5.37943666 -1.1208098 3.01217634 0 0 Z " fill="#FEC107" transform="translate(47,10)"/>
<path d="M0 0 C1.08539062 0.34933594 2.17078125 0.69867188 3.2890625 1.05859375 C4.73430661 1.51844415 6.17962297 1.97806755 7.625 2.4375 C8.69427734 2.78264648 8.69427734 2.78264648 9.78515625 3.13476562 C17.97186439 5.72597141 25.56187308 6.20941646 34.125 6.25 C35.72214844 6.2809375 35.72214844 6.2809375 37.3515625 6.3125 C48.22017851 6.36526027 57.81976314 3.5630829 68 0 C70 3 70 3 69.94921875 5.546875 C69 8 69 8 66.70703125 9.328125 C65.75183594 9.63234375 64.79664062 9.9365625 63.8125 10.25 C62.81089844 10.5696875 61.80929688 10.889375 60.77734375 11.21875 C54.75609808 12.91248999 49.21150337 13.12423007 43 13 C42.9071875 14.60875 42.9071875 14.60875 42.8125 16.25 C42 20 42 20 39.8125 22.4375 C36.45611204 24.30215998 34.7822566 24.6303761 31 24 C28.1875 22.4375 28.1875 22.4375 26 20 C25.1875 16.25 25.1875 16.25 25 13 C23.1746875 13.0928125 23.1746875 13.0928125 21.3125 13.1875 C14.05926242 13.19901308 5.23576176 11.92838387 -1 8 C-1.875 5.5625 -1.875 5.5625 -2 3 C-1.34 2.01 -0.68 1.02 0 0 Z " fill="#FEC108" transform="translate(16,64)"/>
<path d="M0 0 C2.24935083 0.55698211 4.4931662 1.12963226 6.734375 1.71875 C7.72953125 1.9765625 8.7246875 2.234375 9.75 2.5 C11.22726563 2.88671875 11.22726563 2.88671875 12.734375 3.28125 C28.30199964 6.70761715 43.14873429 5.64324091 58.31640625 1.09375 C62 0 62 0 64 0 C64.495 1.98 64.495 1.98 65 4 C63.54683309 4.63691996 62.0870304 5.25869795 60.625 5.875 C59.40683594 6.39707031 59.40683594 6.39707031 58.1640625 6.9296875 C49.84558879 9.74359095 41.67707996 10.38717306 32.9375 10.375 C31.30518433 10.3747583 31.30518433 10.3747583 29.63989258 10.37451172 C19.31073124 10.22983493 8.19501753 9.14179821 -1 4 C-0.67 2.68 -0.34 1.36 0 0 Z " fill="#FFDD78" transform="translate(18,61)"/>
<path d="M0 0 C5.94 0 11.88 0 18 0 C17 7 17 7 14.8125 9.4375 C11.45611204 11.30215998 9.7822566 11.6303761 6 11 C3.1875 9.4375 3.1875 9.4375 1 7 C0.67 4.69 0.34 2.38 0 0 Z " fill="#DA8408" transform="translate(41,77)"/>
<path d="M0 0 C5.94 0 11.88 0 18 0 C18 1.65 18 3.3 18 5 C12.06 5 6.12 5 0 5 C0 3.35 0 1.7 0 0 Z " fill="#BD7109" transform="translate(41,77)"/>
<path d="M0 0 C1.010625 0.0825 2.02125 0.165 3.0625 0.25 C5.0625 3.25 5.0625 3.25 5.0625 6.25 C1.7625 6.25 -1.5375 6.25 -4.9375 6.25 C-3.87489612 0.32977839 -3.87489612 0.32977839 0 0 Z " fill="#DC8907" transform="translate(49.9375,9.75)"/>
</svg>
