<?xml version="1.0" encoding="UTF-8"?>
<svg version="1.1" xmlns="http://www.w3.org/2000/svg" width="100" height="100">
<path d="M0 0 C0.68126953 -0.01224609 1.36253906 -0.02449219 2.06445312 -0.03710938 C5.79079809 -0.04805848 7.38241571 0.06744381 10.5625 2.1875 C10.5625 3.1775 10.5625 4.1675 10.5625 5.1875 C11.17738281 5.16429687 11.79226562 5.14109375 12.42578125 5.1171875 C13.23402344 5.09914063 14.04226562 5.08109375 14.875 5.0625 C15.67550781 5.03929687 16.47601563 5.01609375 17.30078125 4.9921875 C19.5625 5.1875 19.5625 5.1875 22.5625 7.1875 C22.82910183 10.09584885 22.91029124 12.78888268 22.85546875 15.6953125 C22.85122391 16.53593231 22.84697906 17.37655212 22.84260559 18.24264526 C22.82578532 20.93291993 22.78812781 23.62245099 22.75 26.3125 C22.73495745 28.13410378 22.7212683 29.95571928 22.70898438 31.77734375 C22.67587094 36.24768324 22.62406637 40.71746546 22.5625 45.1875 C24.5425 45.1875 26.5225 45.1875 28.5625 45.1875 C28.13612494 48.06553165 27.54163087 49.21055311 25.546875 51.4140625 C22.5700932 55.57452525 23.07631707 59.34994048 23.03125 64.32421875 C22.8765625 65.26910156 22.721875 66.21398437 22.5625 67.1875 C20.53125 68.58203125 20.53125 68.58203125 18.5625 69.1875 C18.583125 70.30125 18.60375 71.415 18.625 72.5625 C18.5625 76.1875 18.5625 76.1875 17.5625 78.1875 C13.75001574 78.21637236 9.9375593 78.23425492 6.125 78.25 C5.03638672 78.25837891 3.94777344 78.26675781 2.82617188 78.27539062 C1.79169922 78.27861328 0.75722656 78.28183594 -0.30859375 78.28515625 C-1.26693115 78.29039307 -2.22526855 78.29562988 -3.21264648 78.30102539 C-5.4375 78.1875 -5.4375 78.1875 -6.4375 77.1875 C-6.57865161 74.51691149 -6.47997107 71.86317762 -6.4375 69.1875 C-8.4175 69.1875 -10.3975 69.1875 -12.4375 69.1875 C-12.37949219 69.99574219 -12.32148437 70.80398437 -12.26171875 71.63671875 C-11.89525709 80.31662502 -11.89525709 80.31662502 -14.5 84.5 C-17.4375 86.1875 -17.4375 86.1875 -21.0625 86.25 C-24.82986607 85.06397735 -25.55883094 84.54428105 -27.4375 81.1875 C-27.73046875 78.171875 -27.73046875 78.171875 -27.625 74.9375 C-27.59792969 73.85984375 -27.57085938 72.7821875 -27.54296875 71.671875 C-27.50816406 70.85203125 -27.47335938 70.0321875 -27.4375 69.1875 C-28.57638672 69.23970703 -28.57638672 69.23970703 -29.73828125 69.29296875 C-30.73214844 69.32003906 -31.72601563 69.34710938 -32.75 69.375 C-33.73613281 69.40980469 -34.72226562 69.44460937 -35.73828125 69.48046875 C-38.4375 69.1875 -38.4375 69.1875 -40.29296875 67.92578125 C-41.4375 66.1875 -41.4375 66.1875 -41.4375 62.1875 C-42.365625 62.001875 -42.365625 62.001875 -43.3125 61.8125 C-45.4375 61.1875 -45.4375 61.1875 -47.4375 59.1875 C-47.6875 56.6875 -47.6875 56.6875 -47.4375 54.1875 C-46.7775 53.5275 -46.1175 52.8675 -45.4375 52.1875 C-44.1175 52.1875 -42.7975 52.1875 -41.4375 52.1875 C-41.4375 50.8675 -41.4375 49.5475 -41.4375 48.1875 C-43.0875 47.8575 -44.7375 47.5275 -46.4375 47.1875 C-47.0625 44.375 -47.0625 44.375 -47.4375 41.1875 C-46.7775 40.1975 -46.1175 39.2075 -45.4375 38.1875 C-44.1175 38.1875 -42.7975 38.1875 -41.4375 38.1875 C-41.4375 36.8675 -41.4375 35.5475 -41.4375 34.1875 C-43.0875 33.8575 -44.7375 33.5275 -46.4375 33.1875 C-47.0625 30.375 -47.0625 30.375 -47.4375 27.1875 C-46.4475 25.7025 -46.4475 25.7025 -45.4375 24.1875 C-44.1175 24.1875 -42.7975 24.1875 -41.4375 24.1875 C-41.4375 22.8675 -41.4375 21.5475 -41.4375 20.1875 C-43.0875 19.8575 -44.7375 19.5275 -46.4375 19.1875 C-47.0625 16.375 -47.0625 16.375 -47.4375 13.1875 C-46.7775 12.1975 -46.1175 11.2075 -45.4375 10.1875 C-44.1175 10.1875 -42.7975 10.1875 -41.4375 10.1875 C-41.251875 9.2284375 -41.251875 9.2284375 -41.0625 8.25 C-40.85625 7.569375 -40.65 6.88875 -40.4375 6.1875 C-37.61925808 4.77837904 -35.26498718 5.07566447 -32.1171875 5.08984375 C-30.86035156 5.09306641 -29.60351562 5.09628906 -28.30859375 5.09960938 C-26.98988281 5.10798828 -25.67117187 5.11636719 -24.3125 5.125 C-22.97265789 5.13001511 -21.632814 5.13457799 -20.29296875 5.13867188 C-17.00776794 5.15048914 -13.72265603 5.16696383 -10.4375 5.1875 C-10.251875 4.2284375 -10.251875 4.2284375 -10.0625 3.25 C-9.85625 2.569375 -9.65 1.88875 -9.4375 1.1875 C-6.41888236 -0.32180882 -3.30758697 0.00311156 0 0 Z " fill="#283269" transform="translate(59.4375,6.8125)"/>
<path d="M0 0 C1.12591553 0.00523682 2.25183105 0.01047363 3.41186523 0.01586914 C4.62680664 0.0190918 5.84174805 0.02231445 7.09350586 0.02563477 C8.37290039 0.03401367 9.65229492 0.04239258 10.97045898 0.05102539 C12.2537207 0.05553711 13.53698242 0.06004883 14.85913086 0.06469727 C18.04211921 0.07652994 21.22501661 0.09301471 24.40795898 0.11352539 C24.43301514 0.70891113 24.45807129 1.30429687 24.48388672 1.91772461 C24.59973392 4.60821675 24.72251094 7.29834879 24.84545898 9.98852539 C24.88477539 10.92567383 24.9240918 11.86282227 24.96459961 12.82836914 C25.00649414 13.72426758 25.04838867 14.62016602 25.09155273 15.54321289 C25.14653931 16.78433838 25.14653931 16.78433838 25.20263672 18.05053711 C25.29034226 20.17531968 25.29034226 20.17531968 26.40795898 22.11352539 C32.01795898 22.11352539 37.62795898 22.11352539 43.40795898 22.11352539 C44.58265343 19.76413651 44.60830787 18.16279334 44.72436523 15.54321289 C44.78720703 14.19936523 44.78720703 14.19936523 44.85131836 12.82836914 C44.89063477 11.8912207 44.92995117 10.95407227 44.97045898 9.98852539 C45.03523438 8.57120117 45.03523438 8.57120117 45.10131836 7.12524414 C45.20754971 4.78815447 45.30959075 2.45095709 45.40795898 0.11352539 C51.56030273 0.01586914 51.56030273 0.01586914 53.40795898 0.11352539 C56.3380047 3.0435711 54.73148136 13.84404181 54.75805664 18.00415039 C54.77459692 19.90336375 54.80186157 21.80251536 54.84008789 23.70141602 C54.89491639 26.43807304 54.91674146 29.17326771 54.93139648 31.91040039 C54.95406586 32.75640808 54.97673523 33.60241577 55.00009155 34.47406006 C54.98469643 38.78045181 54.79918495 40.58792531 52.15185547 44.14453125 C49.42500584 46.10129273 48.2618751 46.74977181 44.98217773 46.82055664 C43.78818359 46.8640625 43.78818359 46.8640625 42.57006836 46.90844727 C41.75344727 46.91424805 40.93682617 46.92004883 40.09545898 46.92602539 C39.25950195 46.95116211 38.42354492 46.97629883 37.56225586 47.00219727 C35.51132489 47.06079529 33.45959305 47.09009032 31.40795898 47.11352539 C30.97483398 48.04165039 30.97483398 48.04165039 30.53295898 48.98852539 C29.40795898 51.11352539 29.40795898 51.11352539 27.40795898 53.11352539 C27.72837296 55.71633107 27.72837296 55.71633107 28.40795898 58.11352539 C26.42795898 58.11352539 24.44795898 58.11352539 22.40795898 58.11352539 C22.4038501 57.40856934 22.39974121 56.70361328 22.39550781 55.97729492 C22.36226597 52.73023218 22.29158896 49.48497057 22.22045898 46.23852539 C22.2146582 45.12993164 22.20885742 44.02133789 22.20288086 42.87915039 C22.01972866 35.96006744 20.96401522 31.04618035 17.47314453 25.03491211 C16.40795898 23.11352539 16.40795898 23.11352539 16.40795898 21.11352539 C15.41795898 21.11352539 14.42795898 21.11352539 13.40795898 21.11352539 C13.13983398 21.97977539 12.87170898 22.84602539 12.59545898 23.73852539 C11.40795898 27.11352539 11.40795898 27.11352539 9.87670898 29.51977539 C7.67185219 34.91463775 7.83454754 40.21238469 7.72045898 45.98852539 C7.68629883 47.15383789 7.65213867 48.31915039 7.61694336 49.51977539 C7.53476545 52.38426257 7.46551478 55.24845524 7.40795898 58.11352539 C4.10795898 58.11352539 0.80795898 58.11352539 -2.59204102 58.11352539 C-2.92204102 56.46352539 -3.25204102 54.81352539 -3.59204102 53.11352539 C-1.94204102 52.45352539 -0.29204102 51.79352539 1.40795898 51.11352539 C1.21967127 48.6687246 1.21967127 48.6687246 0.40795898 46.11352539 C-1.55962375 44.75332388 -1.55962375 44.75332388 -3.59204102 44.11352539 C-3.59204102 42.46352539 -3.59204102 40.81352539 -3.59204102 39.11352539 C-1.94204102 38.45352539 -0.29204102 37.79352539 1.40795898 37.11352539 C1.21967127 34.6687246 1.21967127 34.6687246 0.40795898 32.11352539 C-1.55962375 30.75332388 -1.55962375 30.75332388 -3.59204102 30.11352539 C-3.59204102 28.79352539 -3.59204102 27.47352539 -3.59204102 26.11352539 C-1.09204102 24.36352539 -1.09204102 24.36352539 1.40795898 23.11352539 C1.21967127 20.6687246 1.21967127 20.6687246 0.40795898 18.11352539 C-1.55962375 16.75332388 -1.55962375 16.75332388 -3.59204102 16.11352539 C-3.59204102 14.46352539 -3.59204102 12.81352539 -3.59204102 11.11352539 C-4.39641602 10.86602539 -5.20079102 10.61852539 -6.02954102 10.36352539 C-8.59204102 9.11352539 -8.59204102 9.11352539 -9.46704102 7.05102539 C-9.50829102 6.41165039 -9.54954102 5.77227539 -9.59204102 5.11352539 C-8.59204102 4.11352539 -8.59204102 4.11352539 -6.74438477 4.01586914 C-4.69360352 4.04842122 -2.64282227 4.08097331 -0.59204102 4.11352539 C-0.59204102 3.45352539 -0.59204102 2.79352539 -0.59204102 2.11352539 C-1.58204102 1.78352539 -2.57204102 1.45352539 -3.59204102 1.11352539 C-2.59204102 0.11352539 -2.59204102 0.11352539 0 0 Z " fill="#E65847" transform="translate(24.592041015625,14.886474609375)"/>
<path d="M0 0 C1.48831242 0.00667405 2.97660807 0.01863442 4.46484375 0.03515625 C5.22345703 0.03966797 5.98207031 0.04417969 6.76367188 0.04882812 C8.64326246 0.06064945 10.52281274 0.07858547 12.40234375 0.09765625 C12.54962833 3.72221639 12.63706601 7.34599146 12.71484375 10.97265625 C12.75673828 11.98585938 12.79863281 12.9990625 12.84179688 14.04296875 C12.92857884 19.45816334 12.62351962 23.27631625 9.93359375 28.03515625 C6.59407881 33.95086844 6.62476773 39.54829584 6.58984375 46.22265625 C6.56470703 47.36992188 6.53957031 48.5171875 6.51367188 49.69921875 C6.45534219 52.49904387 6.41866568 55.29732504 6.40234375 58.09765625 C3.10234375 58.09765625 -0.19765625 58.09765625 -3.59765625 58.09765625 C-3.92765625 56.44765625 -4.25765625 54.79765625 -4.59765625 53.09765625 C-2.94765625 52.43765625 -1.29765625 51.77765625 0.40234375 51.09765625 C0.21405603 48.65285546 0.21405603 48.65285546 -0.59765625 46.09765625 C-2.56523898 44.73745474 -2.56523898 44.73745474 -4.59765625 44.09765625 C-4.59765625 42.44765625 -4.59765625 40.79765625 -4.59765625 39.09765625 C-2.94765625 38.43765625 -1.29765625 37.77765625 0.40234375 37.09765625 C0.21405603 34.65285546 0.21405603 34.65285546 -0.59765625 32.09765625 C-2.56523898 30.73745474 -2.56523898 30.73745474 -4.59765625 30.09765625 C-4.59765625 28.77765625 -4.59765625 27.45765625 -4.59765625 26.09765625 C-2.09765625 24.34765625 -2.09765625 24.34765625 0.40234375 23.09765625 C0.21405603 20.65285546 0.21405603 20.65285546 -0.59765625 18.09765625 C-2.56523898 16.73745474 -2.56523898 16.73745474 -4.59765625 16.09765625 C-4.59765625 14.44765625 -4.59765625 12.79765625 -4.59765625 11.09765625 C-5.40203125 10.85015625 -6.20640625 10.60265625 -7.03515625 10.34765625 C-9.59765625 9.09765625 -9.59765625 9.09765625 -10.47265625 7.03515625 C-10.51390625 6.39578125 -10.55515625 5.75640625 -10.59765625 5.09765625 C-9.59765625 4.09765625 -9.59765625 4.09765625 -7.75 4 C-5.69921875 4.03255208 -3.6484375 4.06510417 -1.59765625 4.09765625 C-1.59765625 3.43765625 -1.59765625 2.77765625 -1.59765625 2.09765625 C-2.58765625 1.76765625 -3.57765625 1.43765625 -4.59765625 1.09765625 C-3.59765625 0.09765625 -3.59765625 0.09765625 0 0 Z " fill="#EC7E71" transform="translate(25.59765625,14.90234375)"/>
<path d="M0 0 C6.15234375 -0.09765625 6.15234375 -0.09765625 8 0 C10.93004571 2.93004571 9.32352238 13.73051642 9.35009766 17.890625 C9.36663794 19.78983836 9.39390259 21.68898996 9.43212891 23.58789062 C9.4869574 26.32454765 9.50878247 29.05974232 9.5234375 31.796875 C9.54610687 32.64288269 9.56877625 33.48889038 9.59213257 34.36053467 C9.57652327 38.72683565 9.40684132 40.47021842 6.66186523 44.04467773 C2.00008472 47.4690747 -2.38243034 46.30865767 -8 46 C-8 38.74 -8 31.48 -8 24 C-6.02 23.34 -4.04 22.68 -2 22 C-0.82530556 19.65061112 -0.79965111 18.04926795 -0.68359375 15.4296875 C-0.64169922 14.53378906 -0.59980469 13.63789063 -0.55664062 12.71484375 C-0.49766602 11.30912109 -0.49766602 11.30912109 -0.4375 9.875 C-0.37272461 8.45767578 -0.37272461 8.45767578 -0.30664062 7.01171875 C-0.20040928 4.67462908 -0.09836824 2.3374317 0 0 Z " fill="#E7373B" transform="translate(70,15)"/>
<path d="M0 0 C2.475 0.99 2.475 0.99 5 2 C5 10.25 5 18.5 5 27 C2.03 27 -0.94 27 -4 27 C-4 18.75 -4 10.5 -4 2 C-2.68 1.34 -1.36 0.68 0 0 Z " fill="#6186C4" transform="translate(39,51)"/>
<path d="M0 0 C5.61 0 11.22 0 17 0 C17.1953125 7.6171875 17.1953125 7.6171875 17 10 C15 12 15 12 12.03125 12.265625 C10.8659375 12.26046875 9.700625 12.2553125 8.5 12.25 C7.3346875 12.25515625 6.169375 12.2603125 4.96875 12.265625 C2 12 2 12 0 10 C-0.27450545 6.65103346 -0.08628804 3.36523337 0 0 Z " fill="#C8B146" transform="translate(51,24)"/>
<path d="M0 0 C1.1653125 0.00515625 2.330625 0.0103125 3.53125 0.015625 C4.6965625 0.01046875 5.861875 0.0053125 7.0625 0 C10.03125 0.265625 10.03125 0.265625 12.03125 2.265625 C12.30575545 5.61459154 12.11753804 8.90039163 12.03125 12.265625 C6.42125 12.265625 0.81125 12.265625 -4.96875 12.265625 C-5.1640625 4.6484375 -5.1640625 4.6484375 -4.96875 2.265625 C-2.96875 0.265625 -2.96875 0.265625 0 0 Z " fill="#64B449" transform="translate(55.96875,9.734375)"/>
<path d="M0 0 C0.99 0 1.98 0 3 0 C3.83819158 1.62249941 4.6704116 3.24808497 5.5 4.875 C5.9640625 5.77992187 6.428125 6.68484375 6.90625 7.6171875 C8 10 8 10 8 12 C4.54320988 14.09876543 4.54320988 14.09876543 1.9375 13.625 C0.9784375 13.315625 0.9784375 13.315625 0 13 C-0.99 13 -1.98 13 -3 13 C-3.33 13 -3.66 13 -4 13 C-4.33 21.25 -4.66 29.5 -5 38 C-8.3 38 -11.6 38 -15 38 C-15 37.67 -15 37.34 -15 37 C-12.03 37 -9.06 37 -6 37 C-6.0314209 36.30551758 -6.0628418 35.61103516 -6.09521484 34.89550781 C-7.09634271 9.44067021 -7.09634271 9.44067021 0 0 Z " fill="#47416A" transform="translate(38,36)"/>
<path d="M0 0 C0.33 0 0.66 0 1 0 C1.02686553 1.97909398 1.04633375 3.95828971 1.0625 5.9375 C1.07410156 7.03964844 1.08570312 8.14179687 1.09765625 9.27734375 C1 12 1 12 0 13 C-1.34267413 13.08631874 -2.68974322 13.10706473 -4.03515625 13.09765625 C-4.84404297 13.09443359 -5.65292969 13.09121094 -6.48632812 13.08789062 C-7.33646484 13.07951172 -8.18660156 13.07113281 -9.0625 13.0625 C-9.91650391 13.05798828 -10.77050781 13.05347656 -11.65039062 13.04882812 C-13.76695663 13.03700373 -15.88348685 13.01906769 -18 13 C-18 10.03 -18 7.06 -18 4 C-17.2575 4.78375 -16.515 5.5675 -15.75 6.375 C-13.40578023 8.61266433 -11.85675015 9.69370826 -9 11 C-7.87278564 9.73113036 -6.74831342 8.45982438 -5.625 7.1875 C-4.68527344 6.12595703 -4.68527344 6.12595703 -3.7265625 5.04296875 C-1.859401 2.91196181 -1.859401 2.91196181 0 0 Z " fill="#4965A9" transform="translate(74,70)"/>
<path d="M0 0 C3.3 0 6.6 0 10 0 C10 3.63 10 7.26 10 11 C3.06640625 11.09765625 3.06640625 11.09765625 1 11 C0 10 0 10 -0.09765625 7.71484375 C-0.06510417 5.14322917 -0.03255208 2.57161458 0 0 Z " fill="#ECDE45" transform="translate(52,25)"/>
<path d="M0 0 C0 3.78315497 -0.87794569 4.25820046 -3.4375 6.9375 C-8.40380824 12.32136903 -12.6816146 18.09220886 -17 24 C-21.1424367 22.61918777 -22.32203099 20.40174442 -25 17 C-24.67 16.34 -24.34 15.68 -24 15 C-23.4225 15.350625 -22.845 15.70125 -22.25 16.0625 C-19.52136878 17.19942968 -18.73199756 17.01799584 -16 16 C-14.0045893 14.41638637 -14.0045893 14.41638637 -12.109375 12.40234375 C-11.40039062 11.68369141 -10.69140625 10.96503906 -9.9609375 10.22460938 C-9.23132813 9.46986328 -8.50171875 8.71511719 -7.75 7.9375 C-6.63238281 6.79958008 -6.63238281 6.79958008 -5.4921875 5.63867188 C-3.65453306 3.76567793 -1.82424276 1.88604389 0 0 Z " fill="#63A46E" transform="translate(82,55)"/>
<path d="M0 0 C0.99 0.33 1.98 0.66 3 1 C4.34262065 0.70630173 5.67696283 0.3721042 7 0 C8.66666667 0 10.33333333 0 12 0 C12 8.58 12 17.16 12 26 C11.67 26 11.34 26 11 26 C11 18.74 11 11.48 11 4 C9.68 4.33 8.36 4.66 7 5 C4 5 4 5 0 4 C0 10.93 0 17.86 0 25 C-0.33 25 -0.66 25 -1 25 C-1.02886984 21.02084841 -1.04675406 17.04172347 -1.0625 13.0625 C-1.07087891 11.92619141 -1.07925781 10.78988281 -1.08789062 9.61914062 C-1.09111328 8.53955078 -1.09433594 7.45996094 -1.09765625 6.34765625 C-1.10289307 5.34742432 -1.10812988 4.34719238 -1.11352539 3.31665039 C-1 1 -1 1 0 0 Z " fill="#1D2E6B" transform="translate(34,48)"/>
<path d="M0 0 C0.99 0 1.98 0 3 0 C3 8.25 3 16.5 3 25 C2.01 25 1.02 25 0 25 C0 16.75 0 8.5 0 0 Z " fill="#5067AD" transform="translate(41,53)"/>
<path d="M0 0 C0.99 0 1.98 0 3 0 C3 8.25 3 16.5 3 25 C2.01 25 1.02 25 0 25 C0 16.75 0 8.5 0 0 Z " fill="#88A8D9" transform="translate(35,53)"/>
<path d="M0 0 C-0.1875 2.375 -0.1875 2.375 -1 5 C-3.3125 6.4375 -3.3125 6.4375 -6 7 C-8.70918234 6.07113748 -9.96364164 5.03635836 -12 3 C-11.625 0.875 -11.625 0.875 -11 -1 C-3.375 -2.25 -3.375 -2.25 0 0 Z " fill="#484868" transform="translate(27,20)"/>
<path d="M0 0 C1.32 0 2.64 0 4 0 C4 3.96 4 7.92 4 12 C2.02 12 0.04 12 -2 12 C-2.05395478 10.37536158 -2.09277195 8.75021459 -2.125 7.125 C-2.14820313 6.22007813 -2.17140625 5.31515625 -2.1953125 4.3828125 C-2 2 -2 2 0 0 Z " fill="#98C495" transform="translate(53,10)"/>
<path d="M0 0 C4.62 0 9.24 0 14 0 C11.11342282 4.28612975 11.11342282 4.28612975 9 6 C5.51167779 5.94087589 3.1147063 5.55735315 0 4 C0 2.68 0 1.36 0 0 Z " fill="#6183C1" transform="translate(56,64)"/>
<path d="M0 0 C5 1 5 1 6 2 C6.07205511 3.68608966 6.08386068 5.37500659 6.0625 7.0625 C6.05347656 7.98160156 6.04445313 8.90070312 6.03515625 9.84765625 C6.02355469 10.55792969 6.01195313 11.26820312 6 12 C4.35 12 2.7 12 1 12 C0.67 8.04 0.34 4.08 0 0 Z " fill="#3E9248" transform="translate(62,10)"/>
<path d="M0 0 C1.32 0 2.64 0 4 0 C4.33 3.63 4.66 7.26 5 11 C3.35 10.67 1.7 10.34 0 10 C0 6.7 0 3.4 0 0 Z " fill="#EBE29C" transform="translate(52,25)"/>
<path d="M0 0 C1.134375 0.020625 2.26875 0.04125 3.4375 0.0625 C3.7675 1.7125 4.0975 3.3625 4.4375 5.0625 C1.7975 5.0625 -0.8425 5.0625 -3.5625 5.0625 C-4.125 3.125 -4.125 3.125 -4.5625 1.0625 C-3.5625 0.0625 -3.5625 0.0625 0 0 Z " fill="#CEC05B" transform="translate(19.5625,32.9375)"/>
<path d="M0 0 C0.66 0.33 1.32 0.66 2 1 C-0.31 3.64 -2.62 6.28 -5 9 C-9.17799643 6.91100178 -9.92391901 5.94455388 -12 2 C-10.0625 2.375 -10.0625 2.375 -8 3 C-7.67 3.66 -7.34 4.32 -7 5 C-3.66462511 3.88820837 -2.36292656 2.52588702 0 0 Z " fill="#21356E" transform="translate(70,73)"/>
<path d="M0 0 C1.134375 0.020625 2.26875 0.04125 3.4375 0.0625 C4 2 4 2 4.4375 4.0625 C3.4375 5.0625 3.4375 5.0625 -0.125 5.125 C-1.259375 5.104375 -2.39375 5.08375 -3.5625 5.0625 C-4.125 3.125 -4.125 3.125 -4.5625 1.0625 C-3.5625 0.0625 -3.5625 0.0625 0 0 Z " fill="#D2C45B" transform="translate(19.5625,60.9375)"/>
<path d="M0 0 C1.134375 0.020625 2.26875 0.04125 3.4375 0.0625 C4 2 4 2 4.4375 4.0625 C3.4375 5.0625 3.4375 5.0625 -0.125 5.125 C-1.259375 5.104375 -2.39375 5.08375 -3.5625 5.0625 C-4.125 3.125 -4.125 3.125 -4.5625 1.0625 C-3.5625 0.0625 -3.5625 0.0625 0 0 Z " fill="#D2C45B" transform="translate(19.5625,46.9375)"/>
<path d="M0 0 C2.97 0 5.94 0 9 0 C8.67 1.32 8.34 2.64 8 4 C5.125 4.625 5.125 4.625 2 5 C1.34 4.34 0.68 3.68 0 3 C0 2.01 0 1.02 0 0 Z " fill="#C95354" transform="translate(35,85)"/>
<path d="M0 0 C2.97 0 5.94 0 9 0 C9 1.32 9 2.64 9 4 C6.36 4 3.72 4 1 4 C0.67 2.68 0.34 1.36 0 0 Z " fill="#DECE59" transform="translate(15,20)"/>
<path d="M0 0 C1.32 0 2.64 0 4 0 C4 2.64 4 5.28 4 8 C3.01 8.33 2.02 8.66 1 9 C0.67 7.02 0.34 5.04 0 3 C-0.99 3.66 -1.98 4.32 -3 5 C-1.125 1.125 -1.125 1.125 0 0 Z " fill="#823651" transform="translate(76,64)"/>
<path d="M0 0 C0 3.93888754 -1.28743867 4.73545742 -3.9375 7.5625 C-6.80698827 10.54628746 -6.80698827 10.54628746 -9 14 C-9.66 14 -10.32 14 -11 14 C-10.52590352 9.68269587 -7.96603297 7.66352539 -4.9375 4.75 C-4.01839844 3.85796875 -3.09929687 2.9659375 -2.15234375 2.046875 C-1.44207031 1.37140625 -0.73179688 0.6959375 0 0 Z " fill="#588766" transform="translate(82,55)"/>
<path d="M0 0 C4.875 4.625 4.875 4.625 6 8 C4.02 8 2.04 8 0 8 C0 5.36 0 2.72 0 0 Z " fill="#84A4D6" transform="translate(56,74)"/>
<path d="M0 0 C1.98 0 3.96 0 6 0 C6 1.65 6 3.3 6 5 C3.03 4.505 3.03 4.505 0 4 C0 2.68 0 1.36 0 0 Z " fill="#86A2D2" transform="translate(56,64)"/>
<path d="M0 0 C2.625 -0.1875 2.625 -0.1875 5 0 C5.66 1.32 6.32 2.64 7 4 C6.01 4 5.02 4 4 4 C2.32900023 4.31088368 0.66128463 4.64080332 -1 5 C-1.33 4.34 -1.66 3.68 -2 3 C-1.34 2.01 -0.68 1.02 0 0 Z " fill="#C6B75C" transform="translate(37,45)"/>
<path d="M0 0 C0.33 1.32 0.66 2.64 1 4 C-0.625 5.625 -0.625 5.625 -3 7 C-6.25 6.1875 -6.25 6.1875 -9 5 C-9 4.67 -9 4.34 -9 4 C-6.69 4 -4.38 4 -2 4 C-1.67 3.01 -1.34 2.02 -1 1 C-0.67 0.67 -0.34 0.34 0 0 Z " fill="#454169" transform="translate(26,34)"/>
<path d="M0 0 C3.04860014 1.01620005 3.86666922 1.77391571 6 4 C6.66 4.33 7.32 4.66 8 5 C8 5.66 8 6.32 8 7 C4.21388773 6.45912682 2.44599233 4.88277668 0 2 C0 1.34 0 0.68 0 0 Z " fill="#5BA262" transform="translate(57,70)"/>
<path d="M0 0 C0.625 1.875 0.625 1.875 1 4 C0.34 4.66 -0.32 5.32 -1 6 C-1.99 5.67 -2.98 5.34 -4 5 C-2.25 1.125 -2.25 1.125 0 0 Z " fill="#454068" transform="translate(26,62)"/>
</svg>
