<?xml version="1.0" encoding="UTF-8"?>
<svg version="1.1" xmlns="http://www.w3.org/2000/svg" width="100" height="100">
<path d="M0 0 C5.07979288 0.70754258 8.32316563 2.98789669 12.5 5.8203125 C16.21572627 7.57367084 18.46454735 6.49915775 22.2109375 5.28125 C22.92507812 5.0234375 23.63921875 4.765625 24.375 4.5 C35.68555707 0.66749719 47.29820484 1.16562364 58.3125 5.6875 C62.18286868 7.06508885 63.21704208 7.15284629 67 6 C69.34905627 4.51172805 71.50995539 2.86739324 73.71875 1.1796875 C76.58236282 -0.30115338 77.97946177 0.07469427 81 1 C82.07018649 4.21055946 82.09981883 6.46845033 82.0625 9.83984375 C82.05476563 10.98517578 82.04703125 12.13050781 82.0390625 13.31054688 C82.0130629 15.72460983 81.98702137 18.13867233 81.9609375 20.55273438 C81.95320313 21.69935547 81.94546875 22.84597656 81.9375 24.02734375 C81.92589844 25.07656006 81.91429688 26.12577637 81.90234375 27.20678711 C81.98805162 29.65824635 82.28802204 31.66539903 83 34 C84.98 34 86.96 34 89 34 C88.505 34.99 88.505 34.99 88 36 C85.4375 36.625 85.4375 36.625 83 37 C83 38.65 83 40.3 83 42 C84.98 42.33 86.96 42.66 89 43 C89 43.33 89 43.66 89 44 C86.36 44 83.72 44 81 44 C80.67 45.98 80.34 47.96 80 50 C81.65 50.33 83.3 50.66 85 51 C85 51.66 85 52.32 85 53 C83.989375 52.835 82.97875 52.67 81.9375 52.5 C77.55838078 53.05607863 77.44488131 53.20732765 74.9375 56.4375 C70.1350933 62.53785445 63.60842046 66.1433388 57 70 C56.08347656 70.54269531 55.16695313 71.08539063 54.22265625 71.64453125 C47.92521991 75.0966804 41.69251614 77.20473473 34.53515625 75.3671875 C31.92936249 74.38744198 29.48605053 73.25248512 27 72 C26.10152344 71.56300781 25.20304687 71.12601562 24.27734375 70.67578125 C16.72924659 66.80087905 9.10868837 62.13307521 3.94921875 55.2734375 C2.08916365 52.56532632 2.08916365 52.56532632 -1.75 52.6875 C-3.35875 52.8421875 -3.35875 52.8421875 -5 53 C-5 52.34 -5 51.68 -5 51 C-2.525 50.505 -2.525 50.505 0 50 C-0.33 48.02 -0.66 46.04 -1 44 C-3.64 44 -6.28 44 -9 44 C-9 43.67 -9 43.34 -9 43 C-6.03 42.505 -6.03 42.505 -3 42 C-2.505 39.03 -2.505 39.03 -2 36 C-3.98 36 -5.96 36 -8 36 C-8.33 35.34 -8.66 34.68 -9 34 C-7.02 34 -5.04 34 -3 34 C-1.96604687 30.62002191 -1.911951 27.5861267 -1.97265625 24.0625 C-1.98490234 22.92039062 -1.99714844 21.77828125 -2.00976562 20.6015625 C-2.04492276 18.20046047 -2.08398557 15.79941246 -2.12695312 13.3984375 C-2.13791016 12.25632812 -2.14886719 11.11421875 -2.16015625 9.9375 C-2.17699463 8.89464844 -2.19383301 7.85179687 -2.21118164 6.77734375 C-1.99877838 3.98393388 -1.44117116 2.37126855 0 0 Z " fill="#F5C227" transform="translate(10,12)"/>
<path d="M0 0 C15.18 0 30.36 0 46 0 C43.54637912 7.36086263 39.64895689 12.18941389 32.9453125 16.2421875 C27.50214799 18.53749783 21.61733355 19.08725148 15.93359375 17.37890625 C10.34490319 14.91813252 5.67542995 10.84880665 2 6 C1.34 4.02 0.68 2.04 0 0 Z " fill="#26231C" transform="translate(27,63)"/>
<path d="M0 0 C8.95788336 0.42516959 17.32210784 1.74175965 26 4 C25.67 4.66 25.34 5.32 25 6 C25.99 6.33 26.98 6.66 28 7 C28 7.66 28 8.32 28 9 C26.35 9.33 24.7 9.66 23 10 C24.32 10.66 25.64 11.32 27 12 C10.29949239 19 10.29949239 19 4 19 C4 18.34 4 17.68 4 17 C5.65 16.67 7.3 16.34 9 16 C8.67 14.02 8.34 12.04 8 10 C5.36 10 2.72 10 0 10 C0 9.67 0 9.34 0 9 C1.98 8.67 3.96 8.34 6 8 C6.33 6.02 6.66 4.04 7 2 C5.02 2 3.04 2 1 2 C0.67 1.34 0.34 0.68 0 0 Z " fill="#E3A212" transform="translate(1,46)"/>
<path d="M0 0 C11.88 0 23.76 0 36 0 C35.01 1.98 34.02 3.96 33 6 C32.34 6 31.68 6 31 6 C31 5.34 31 4.68 31 4 C22.42 4 13.84 4 5 4 C5 4.66 5 5.32 5 6 C4.34 6 3.68 6 3 6 C2.01 4.02 1.02 2.04 0 0 Z " fill="#CBC8BF" transform="translate(32,65)"/>
<path d="M0 0 C7.75 -0.125 7.75 -0.125 10 1 C10.35050464 6.841744 10.16727335 10.8531808 7 16 C5.68 16 4.36 16 3 16 C0.54970669 10.28264895 -0.33266291 6.20970773 0 0 Z " fill="#D48D0B" transform="translate(46,14)"/>
<path d="M0 0 C2.54173977 -0.02716824 5.08318415 -0.04691969 7.625 -0.0625 C8.33785156 -0.07087891 9.05070312 -0.07925781 9.78515625 -0.08789062 C13.97344438 -0.10710296 17.8728462 0.1732673 22 1 C22 1.33 22 1.66 22 2 C19.36 2 16.72 2 14 2 C13.67 3.98 13.34 5.96 13 8 C15.475 8.495 15.475 8.495 18 9 C18 9.66 18 10.32 18 11 C11.04223041 9.63125844 4.61396893 7.5466871 -2 5 C-1.34 4.67 -0.68 4.34 0 4 C0 2.68 0 1.36 0 0 Z " fill="#E2A112" transform="translate(77,54)"/>
<path d="M0 0 C-0.33 0.66 -0.66 1.32 -1 2 C-3.5625 2.625 -3.5625 2.625 -6 3 C-6.33 4.65 -6.66 6.3 -7 8 C-17.395 8.495 -17.395 8.495 -28 9 C-28 8.34 -28 7.68 -28 7 C-27.01 6.67 -26.02 6.34 -25 6 C-25.99 5.34 -26.98 4.68 -28 4 C-25.64631607 3.51835812 -23.29209845 3.03963352 -20.9375 2.5625 C-20.28072266 2.42779297 -19.62394531 2.29308594 -18.94726562 2.15429688 C-12.62983128 0.87836186 -6.47048019 -0.15781659 0 0 Z " fill="#E9AE16" transform="translate(99,46)"/>
<path d="M0 0 C8.95788336 0.42516959 17.32210784 1.74175965 26 4 C25.67 4.66 25.34 5.32 25 6 C25.99 6.33 26.98 6.66 28 7 C28 7.66 28 8.32 28 9 C21.07 8.67 14.14 8.34 7 8 C7 6.02 7 4.04 7 2 C5.02 2 3.04 2 1 2 C0.67 1.34 0.34 0.68 0 0 Z " fill="#E9AC15" transform="translate(1,46)"/>
<path d="M0 0 C0 5.61 0 11.22 0 17 C-0.66 17 -1.32 17 -2 17 C-6 12.52941176 -6 12.52941176 -6 10 C-7.32 9.34 -8.64 8.68 -10 8 C-10 7.01 -10 6.02 -10 5 C-8.57421875 3.61328125 -8.57421875 3.61328125 -6.6875 2.3125 C-6.07261719 1.87550781 -5.45773438 1.43851563 -4.82421875 0.98828125 C-3 0 -3 0 0 0 Z " fill="#862A19" transform="translate(89,17)"/>
<path d="M0 0 C3.56679337 0.89169834 4.95603121 1.4670234 7.75 3.5625 C8.67039062 4.24505859 8.67039062 4.24505859 9.609375 4.94140625 C10.29773438 5.46541016 10.29773438 5.46541016 11 6 C10.60167969 6.45890625 10.20335937 6.9178125 9.79296875 7.390625 C6.39984291 11.31674827 6.39984291 11.31674827 3.25 15.4375 C2.8375 15.953125 2.425 16.46875 2 17 C1.34 17 0.68 17 0 17 C0 11.39 0 5.78 0 0 Z " fill="#AD392B" transform="translate(11,17)"/>
<path d="M0 0 C3.3 0 6.6 0 10 0 C10.33 1.32 10.66 2.64 11 4 C9.375 6.3125 9.375 6.3125 7 8 C4.05704272 7.92822055 2.52689412 7.36882588 0.125 5.6875 C-0.24625 5.130625 -0.6175 4.57375 -1 4 C-0.67 2.68 -0.34 1.36 0 0 Z " fill="#443025" transform="translate(45,50)"/>
<path d="M0 0 C6.93 0 13.86 0 21 0 C21 0.99 21 1.98 21 3 C14.07 3 7.14 3 0 3 C0 2.01 0 1.02 0 0 Z " fill="#FAF9F8" transform="translate(39,65)"/>
<path d="M0 0 C3.99415475 0.64191773 5.70456405 1.68235387 8.5 4.5625 C8.5 5.2225 8.5 5.8825 8.5 6.5625 C7.84 6.3975 7.18 6.2325 6.5 6.0625 C2.7576255 5.43877092 -0.70242227 5.50222099 -4.5 5.5625 C-5.82 5.5625 -7.14 5.5625 -8.5 5.5625 C-5.75194049 2.23151878 -4.33784855 0.69715423 0 0 Z " fill="#343022" transform="translate(66.5,37.4375)"/>
<path d="M0 0 C2.9375 2.5 2.9375 2.5 5 5 C4.01 5.33 3.02 5.66 2 6 C1.34 5.67 0.68 5.34 0 5 C-6.08516056 4.76666713 -6.08516056 4.76666713 -12 6 C-9.48176239 0.18868244 -6.14401483 -0.74151903 0 0 Z " fill="#343022" transform="translate(37,38)"/>
<path d="M0 0 C-1.32 2.97 -2.64 5.94 -4 9 C-4.99 9 -5.98 9 -7 9 C-7.99 6.36 -8.98 3.72 -10 1 C-5.8922935 -0.58706842 -4.40767604 -1.10191901 0 0 Z " fill="#D8910C" transform="translate(43,16)"/>
<path d="M0 0 C0.99 0.66 1.98 1.32 3 2 C3 2.66 3 3.32 3 4 C-0.99673385 5.33224462 -4.83294503 5.13442113 -9 5 C-9.66 4.67 -10.32 4.34 -11 4 C-10.67 3.01 -10.34 2.02 -10 1 C-6.87293041 -0.5635348 -3.42017557 -0.39958487 0 0 Z " fill="#A62734" transform="translate(54,74)"/>
<path d="M0 0 C2.31 0.33 4.62 0.66 7 1 C7.625 3.3125 7.625 3.3125 8 6 C7.01 7.485 7.01 7.485 6 9 C5.01 9 4.02 9 3 9 C2.01 6.03 1.02 3.06 0 0 Z " fill="#D6900C" transform="translate(60,16)"/>
<path d="M0 0 C1.051875 0.24363281 1.051875 0.24363281 2.125 0.4921875 C5.14302565 1.02526268 7.93713337 1.13281344 11 1.125 C12.5159375 1.12886719 12.5159375 1.12886719 14.0625 1.1328125 C16.81714744 1.00826727 19.31838803 0.62110865 22 0 C19.43721605 3.1322915 16.91471148 4.11365023 13 5 C7.97465893 5.00985361 4.08856569 4.06642426 0 1 C0 0.67 0 0.34 0 0 Z " fill="#E3A50E" transform="translate(39,80)"/>
<path d="M0 0 C3.15330554 0.60694155 5.18888867 1.6416665 7.75 3.5625 C8.67039062 4.24505859 8.67039062 4.24505859 9.609375 4.94140625 C10.29773438 5.46541016 10.29773438 5.46541016 11 6 C9.3545622 7.68762851 7.68711423 9.3540349 6 11 C5.67 11 5.34 11 5 11 C4.731875 9.88625 4.46375 8.7725 4.1875 7.625 C3.34190981 3.78159049 3.34190981 3.78159049 0 2 C0 1.34 0 0.68 0 0 Z " fill="#711F11" transform="translate(11,17)"/>
<path d="M0 0 C0 3.63 0 7.26 0 11 C-1.32 10.34 -2.64 9.68 -4 9 C-4.368 3.48 -4.368 3.48 -2.5625 1.125 C-1 0 -1 0 0 0 Z " fill="#DC4C4B" transform="translate(89,20)"/>
<path d="M0 0 C1.4540625 0.0309375 1.4540625 0.0309375 2.9375 0.0625 C2.9375 1.3825 2.9375 2.7025 2.9375 4.0625 C1.2875 4.3925 -0.3625 4.7225 -2.0625 5.0625 C-2.7225 3.7425 -3.3825 2.4225 -4.0625 1.0625 C-3.0625 0.0625 -3.0625 0.0625 0 0 Z " fill="#806049" transform="translate(50.0625,49.9375)"/>
<path d="M0 0 C1.485 0.99 1.485 0.99 3 2 C3.375 5.5 3.375 5.5 3 9 C2.01 9.66 1.02 10.32 0 11 C0 7.37 0 3.74 0 0 Z " fill="#E24F4F" transform="translate(11,20)"/>
<path d="M0 0 C1.22589844 0.15275391 1.22589844 0.15275391 2.4765625 0.30859375 C3.41628906 0.43427734 3.41628906 0.43427734 4.375 0.5625 C1.28611478 2.62175681 0.66564073 2.8015374 -2.8125 2.6875 C-4.6996875 2.625625 -4.6996875 2.625625 -6.625 2.5625 C-6.625 1.9025 -6.625 1.2425 -6.625 0.5625 C-4.10446405 -0.69776798 -2.7707902 -0.35624445 0 0 Z " fill="#C13E4B" transform="translate(51.625,76.4375)"/>
</svg>
