<?xml version="1.0" encoding="UTF-8"?>
<svg version="1.1" xmlns="http://www.w3.org/2000/svg" width="100" height="100">
<path d="M0 0 C3.14472212 1.68788866 6.19126105 3.50719096 9.20825195 5.41088867 C9.80573242 5.78342773 10.40321289 6.1559668 11.01879883 6.53979492 C12.48001446 7.45159348 13.9381978 8.36824843 15.39575195 9.28588867 C15.39575195 5.98588867 15.39575195 2.68588867 15.39575195 -0.71411133 C19.68575195 -0.71411133 23.97575195 -0.71411133 28.39575195 -0.71411133 C28.39575195 5.55588867 28.39575195 11.82588867 28.39575195 18.28588867 C30.04575195 18.94588867 31.69575195 19.60588867 33.39575195 20.28588867 C37.49892165 22.18519664 41.14336359 24.11173646 44.39575195 27.28588867 C45.33239586 31.11480664 45.08638247 34.42812425 44.39575195 38.28588867 C42.41575195 38.28588867 40.43575195 38.28588867 38.39575195 38.28588867 C38.39575195 40.92588867 38.39575195 43.56588867 38.39575195 46.28588867 C39.20012695 46.43026367 40.00450195 46.57463867 40.83325195 46.72338867 C43.39575195 47.28588867 43.39575195 47.28588867 44.39575195 48.28588867 C44.64731465 51.92488043 44.58097421 55.5767254 44.58325195 59.22338867 C44.59549805 60.25141602 44.60774414 61.27944336 44.62036133 62.33862305 C44.62229492 63.32024414 44.62422852 64.30186523 44.6262207 65.31323242 C44.63032959 66.21807373 44.63443848 67.12291504 44.63867188 68.05517578 C44.39575195 70.28588867 44.39575195 70.28588867 42.39575195 72.28588867 C41.07575195 72.28588867 39.75575195 72.28588867 38.39575195 72.28588867 C38.39575195 78.55588867 38.39575195 84.82588867 38.39575195 91.28588867 C11.99575195 91.28588867 -14.40424805 91.28588867 -41.60424805 91.28588867 C-41.60424805 73.79588867 -41.60424805 56.30588867 -41.60424805 38.28588867 C-43.58424805 38.28588867 -45.56424805 38.28588867 -47.60424805 38.28588867 C-48.15384972 34.48786968 -48.3382928 31.06804124 -47.60424805 27.28588867 C-45.11526486 24.32061858 -42.01271766 22.7961042 -38.60424805 21.03588867 C-36.68595839 19.95934851 -34.7693593 18.87979171 -32.85424805 17.79760742 C-31.83975586 17.2386377 -30.82526367 16.67966797 -29.7800293 16.10375977 C-26.45120947 14.19828679 -23.24931014 12.15812336 -20.04174805 10.05541992 C-18.96795898 9.35513672 -17.89416992 8.65485352 -16.7878418 7.93334961 C-14.69027704 6.55963772 -12.59893058 5.17637652 -10.5144043 3.78295898 C-9.07387695 2.85821777 -9.07387695 2.85821777 -7.60424805 1.91479492 C-6.75862305 1.35864502 -5.91299805 0.80249512 -5.04174805 0.22949219 C-2.60424805 -0.71411133 -2.60424805 -0.71411133 0 0 Z " fill="#D3DADB" transform="translate(51.604248046875,4.714111328125)"/>
<path d="M0 0 C3.14472212 1.68788866 6.19126105 3.50719096 9.20825195 5.41088867 C9.80573242 5.78342773 10.40321289 6.1559668 11.01879883 6.53979492 C12.48001446 7.45159348 13.9381978 8.36824843 15.39575195 9.28588867 C15.39575195 5.98588867 15.39575195 2.68588867 15.39575195 -0.71411133 C19.68575195 -0.71411133 23.97575195 -0.71411133 28.39575195 -0.71411133 C28.39575195 5.55588867 28.39575195 11.82588867 28.39575195 18.28588867 C30.04575195 18.94588867 31.69575195 19.60588867 33.39575195 20.28588867 C35.36580033 21.1978004 37.30411387 22.18082846 39.20825195 23.22338867 C40.18407227 23.72741211 41.15989258 24.23143555 42.1652832 24.75073242 C44.39575195 27.28588867 44.39575195 27.28588867 44.39575195 38.28588867 C14.03575195 38.28588867 -16.32424805 38.28588867 -47.60424805 38.28588867 C-47.60424805 34.65588867 -47.60424805 31.02588867 -47.60424805 27.28588867 C-44.48068867 24.46167041 -42.24750478 22.91735391 -38.60424805 21.03588867 C-36.68595839 19.95934851 -34.7693593 18.87979171 -32.85424805 17.79760742 C-31.83975586 17.2386377 -30.82526367 16.67966797 -29.7800293 16.10375977 C-26.45120947 14.19828679 -23.24931014 12.15812336 -20.04174805 10.05541992 C-18.96795898 9.35513672 -17.89416992 8.65485352 -16.7878418 7.93334961 C-14.69027704 6.55963772 -12.59893058 5.17637652 -10.5144043 3.78295898 C-9.07387695 2.85821777 -9.07387695 2.85821777 -7.60424805 1.91479492 C-6.75862305 1.35864502 -5.91299805 0.80249512 -5.04174805 0.22949219 C-2.60424805 -0.71411133 -2.60424805 -0.71411133 0 0 Z " fill="#646A76" transform="translate(51.604248046875,4.714111328125)"/>
<path d="M0 0 C2.00878906 0.13647461 2.00878906 0.13647461 4.00878906 2.13647461 C4.26757812 4.35131836 4.26757812 4.35131836 4.27441406 7.07397461 C4.27828125 8.53963867 4.27828125 8.53963867 4.28222656 10.03491211 C4.27449219 11.05842773 4.26675781 12.08194336 4.25878906 13.13647461 C4.27039063 14.67174805 4.27039063 14.67174805 4.28222656 16.23803711 C4.27964844 17.21514648 4.27707031 18.19225586 4.27441406 19.19897461 C4.2721582 20.09745117 4.26990234 20.99592773 4.26757812 21.92163086 C4.00878906 24.13647461 4.00878906 24.13647461 2.00878906 26.13647461 C0.68878906 26.13647461 -0.63121094 26.13647461 -1.99121094 26.13647461 C-1.99121094 32.40647461 -1.99121094 38.67647461 -1.99121094 45.13647461 C-9.58121094 45.13647461 -17.17121094 45.13647461 -24.99121094 45.13647461 C-24.99121094 38.86647461 -24.99121094 32.59647461 -24.99121094 26.13647461 C-26.41175781 26.15967773 -27.83230469 26.18288086 -29.29589844 26.20678711 C-31.15266403 26.22554232 -33.00943529 26.24374278 -34.86621094 26.26147461 C-36.27193359 26.28661133 -36.27193359 26.28661133 -37.70605469 26.31225586 C-39.04990234 26.32192383 -39.04990234 26.32192383 -40.42089844 26.33178711 C-41.24831543 26.34226074 -42.07573242 26.35273437 -42.92822266 26.36352539 C-44.99121094 26.13647461 -44.99121094 26.13647461 -46.99121094 24.13647461 C-47.23413086 21.90576172 -47.23413086 21.90576172 -47.22167969 19.16381836 C-47.21974609 18.18219727 -47.2178125 17.20057617 -47.21582031 16.18920898 C-47.20357422 15.16118164 -47.19132812 14.1331543 -47.17871094 13.07397461 C-47.17806641 12.04208008 -47.17742188 11.01018555 -47.17675781 9.94702148 C-47.13137091 2.27663458 -47.13137091 2.27663458 -45.99121094 1.13647461 C-42.87603646 0.97582574 -39.78069642 0.87671898 -36.66308594 0.82006836 C-35.72192932 0.79928726 -34.78077271 0.77850616 -33.81109619 0.75709534 C-30.78787824 0.6915004 -27.7645687 0.63273414 -24.74121094 0.57397461 C-22.71646206 0.53078816 -20.69172227 0.48717383 -18.66699219 0.44311523 C-8.71511757 0.23087756 -8.71511757 0.23087756 -5.09265137 0.17623901 C-3.39438872 0.14410372 -1.69680149 0.07741691 0 0 Z " fill="#9C6720" transform="translate(91.9912109375,50.863525390625)"/>
<path d="M0 0 C3.14472212 1.68788866 6.19126105 3.50719096 9.20825195 5.41088867 C9.80573242 5.78342773 10.40321289 6.1559668 11.01879883 6.53979492 C12.48001446 7.45159348 13.9381978 8.36824843 15.39575195 9.28588867 C15.39575195 5.98588867 15.39575195 2.68588867 15.39575195 -0.71411133 C19.68575195 -0.71411133 23.97575195 -0.71411133 28.39575195 -0.71411133 C28.39575195 5.55588867 28.39575195 11.82588867 28.39575195 18.28588867 C30.04575195 18.94588867 31.69575195 19.60588867 33.39575195 20.28588867 C37.45390699 22.21364923 41.11900206 24.18367356 44.39575195 27.28588867 C45.32548187 30.79536368 45.10049325 33.747945 44.39575195 37.28588867 C40.54143731 35.86832571 37.20197468 34.06599784 33.7121582 31.90698242 C32.08250122 30.90127197 32.08250122 30.90127197 30.41992188 29.87524414 C29.85373138 29.5231488 29.28754089 29.17105347 28.70419312 28.80828857 C26.94726862 27.71656381 25.18622562 26.63175388 23.42431641 25.5480957 C18.47750095 22.49764741 13.54874168 19.43406031 8.74731445 16.15698242 C8.10979248 15.72522705 7.47227051 15.29347168 6.81542969 14.84863281 C5.20980819 13.74766754 3.62037163 12.62319892 2.0324707 11.49682617 C-0.48851455 10.02781981 -0.48851455 10.02781981 -2.9284668 10.74291992 C-6.72138158 12.93007516 -10.42526871 15.22485361 -14.10424805 17.59838867 C-15.78997561 18.67334538 -17.47619288 19.74753443 -19.1628418 20.82104492 C-20.04439941 21.3832373 -20.92595703 21.94542969 -21.83422852 22.5246582 C-26.59664346 25.55269111 -31.37789267 28.54989163 -36.16674805 31.53588867 C-37.07682617 32.10863525 -37.9869043 32.68138184 -38.92456055 33.27148438 C-39.76889648 33.79701904 -40.61323242 34.32255371 -41.4831543 34.86401367 C-42.23153564 35.33226562 -42.97991699 35.80051758 -43.75097656 36.28295898 C-45.60424805 37.28588867 -45.60424805 37.28588867 -47.60424805 37.28588867 C-48.16239931 33.81079413 -48.33399633 30.74507666 -47.60424805 27.28588867 C-45.08350812 24.41426797 -41.9591848 22.86193453 -38.60424805 21.09838867 C-36.6860382 20.01256867 -34.76943592 18.92390504 -32.85424805 17.83276367 C-31.83975586 17.26750977 -30.82526367 16.70225586 -29.7800293 16.11987305 C-26.45696582 14.20083454 -23.25103319 12.15487078 -20.04174805 10.05151367 C-18.96795898 9.35179443 -17.89416992 8.6520752 -16.7878418 7.93115234 C-14.68998923 6.55869987 -12.59863344 5.17625735 -10.5144043 3.78320312 C-9.07387695 2.85834106 -9.07387695 2.85834106 -7.60424805 1.91479492 C-6.75862305 1.35864502 -5.91299805 0.80249512 -5.04174805 0.22949219 C-2.60424805 -0.71411133 -2.60424805 -0.71411133 0 0 Z " fill="#D4DCDE" transform="translate(51.604248046875,4.714111328125)"/>
<path d="M0 0 C1.32 0 2.64 0 4 0 C4 3.63 4 7.26 4 11 C6.97 11 9.94 11 13 11 C13 11.99 13 12.98 13 14 C10.03 14 7.06 14 4 14 C4 14.99 4 15.98 4 17 C5.65 17 7.3 17 9 17 C8.67 17.99 8.34 18.98 8 20 C21.86 20.33 35.72 20.66 50 21 C49.34 22.32 48.68 23.64 48 25 C46.68 25 45.36 25 44 25 C44 31.27 44 37.54 44 44 C36.41 44 28.82 44 21 44 C21 37.73 21 31.46 21 25 C19.57945313 25.02320312 18.15890625 25.04640625 16.6953125 25.0703125 C14.83854691 25.08906771 12.98177565 25.10726817 11.125 25.125 C9.71927734 25.15013672 9.71927734 25.15013672 8.28515625 25.17578125 C6.94130859 25.18544922 6.94130859 25.18544922 5.5703125 25.1953125 C4.74289551 25.20578613 3.91547852 25.21625977 3.06298828 25.22705078 C1 25 1 25 -1 23 C-1.24291992 20.76928711 -1.24291992 20.76928711 -1.23046875 18.02734375 C-1.22853516 17.04572266 -1.22660156 16.06410156 -1.22460938 15.05273438 C-1.21236328 14.02470703 -1.20011719 12.99667969 -1.1875 11.9375 C-1.18685547 10.90560547 -1.18621094 9.87371094 -1.18554688 8.81054688 C-1.14015997 1.14015997 -1.14015997 1.14015997 0 0 Z " fill="#7C521B" transform="translate(46,52)"/>
<path d="M0 0 C6.27 0 12.54 0 19 0 C19 11.22 19 22.44 19 34 C12.73 34 6.46 34 0 34 C0 22.78 0 11.56 0 0 Z " fill="#686E79" transform="translate(20,62)"/>
<path d="M0 0 C2.6781189 1.3361749 5.18391639 2.7883523 7.7121582 4.39038086 C8.68797852 5.00510254 9.66379883 5.61982422 10.66918945 6.25317383 C11.70043945 6.90817871 12.73168945 7.56318359 13.79418945 8.23803711 C15.94338278 9.59437182 18.09312836 10.94983183 20.2434082 12.30444336 C21.31123535 12.97749512 22.3790625 13.65054687 23.47924805 14.34399414 C28.75626004 17.64531921 34.08247164 20.86597721 39.42382812 24.06201172 C41.16753998 25.11533024 42.8899844 26.20375332 44.60668945 27.30053711 C44.60668945 27.63053711 44.60668945 27.96053711 44.60668945 28.30053711 C39.10231325 28.66011947 36.05675412 27.89835954 31.35668945 25.05053711 C30.77604736 24.7035376 30.19540527 24.35653809 29.59716797 23.99902344 C27.58696222 22.78673002 25.59592741 21.5469325 23.60668945 20.30053711 C22.80924316 19.80279785 22.01179688 19.30505859 21.19018555 18.79223633 C17.03451466 16.19244607 12.89085588 13.57477348 8.7590332 10.93725586 C8.03184082 10.48012207 7.30464844 10.02298828 6.55541992 9.55200195 C4.95677892 8.52536279 3.40156071 7.43140443 1.8605957 6.32006836 C-0.37975148 5.00074704 -0.37975148 5.00074704 -2.75878906 6.078125 C-5.2100725 7.21551506 -7.48922637 8.44083628 -9.79956055 9.83959961 C-11.03053467 10.58149536 -11.03053467 10.58149536 -12.28637695 11.33837891 C-13.14666504 11.86214111 -14.00695313 12.38590332 -14.89331055 12.92553711 C-15.77809082 13.46025635 -16.66287109 13.99497559 -17.57446289 14.54589844 C-23.75666268 18.28769706 -29.91792278 22.06324625 -36.05737305 25.87475586 C-40.09803899 28.34104861 -42.63264455 28.38869759 -47.39331055 28.30053711 C-42.56827877 24.10440905 -37.11161794 21.00599964 -31.64331055 17.73803711 C-25.77739772 14.22313384 -19.93011027 10.71663359 -14.27612305 6.86694336 C-13.50880859 6.34753174 -12.74149414 5.82812012 -11.95092773 5.29296875 C-10.52688805 4.31923781 -9.11282738 3.33070158 -7.71069336 2.32568359 C-3.00465681 -0.8781334 -3.00465681 -0.8781334 0 0 Z " fill="#4B5057" transform="translate(51.393310546875,14.699462890625)"/>
<path d="M0 0 C25.74 0 51.48 0 78 0 C78.495 2.475 78.495 2.475 79 5 C52.93 5 26.86 5 0 5 C0 3.35 0 1.7 0 0 Z " fill="#BDC5C6" transform="translate(11,42)"/>
<path d="M0 0 C5.28 0 10.56 0 16 0 C16 6.27 16 12.54 16 19 C10.72 19 5.44 19 0 19 C0 12.73 0 6.46 0 0 Z " fill="#D5DEDF" transform="translate(74,77)"/>
<path d="M0 0 C4.29 0 8.58 0 13 0 C13 6.27 13 12.54 13 19 C2.25 13.25 2.25 13.25 0 11 C-0.27629475 7.31975395 -0.0859315 3.69505443 0 0 Z " fill="#454950" transform="translate(67,4)"/>
<path d="M0 0 C13.86 0 27.72 0 42 0 C42 0.33 42 0.66 42 1 C37.05 1 32.1 1 27 1 C27 7.27 27 13.54 27 20 C24.69 20 22.38 20 20 20 C20 13.73 20 7.46 20 1 C13.4 1 6.8 1 0 1 C0 0.67 0 0.34 0 0 Z " fill="#98713C" transform="translate(47,76)"/>
<path d="M0 0 C0.99 0.66 1.98 1.32 3 2 C3.37331109 5.42201828 3.63763183 7.90185629 1.875 10.9375 C-0.88980433 12.50422245 -2.88188517 12.38976435 -6 12 C-7.875 10.875 -7.875 10.875 -9 9 C-9.39365568 5.85075452 -9.52854531 3.88090884 -7.875 1.125 C-5.14747535 -0.51151479 -3.12026907 -0.32502803 0 0 Z " fill="#2D71BA" transform="translate(53,24)"/>
<path d="M0 0 C0.33 0.99 0.66 1.98 1 3 C-0.98 3 -2.96 3 -5 3 C-5 3.66 -5 4.32 -5 5 C-3.02 5 -1.04 5 1 5 C1.1875 8.375 1.1875 8.375 1 12 C-2 14 -2 14 -5.1875 13.625 C-6.5796875 13.315625 -6.5796875 13.315625 -8 13 C-8 12.01 -8 11.02 -8 10 C-6.02 10 -4.04 10 -2 10 C-2 9.34 -2 8.68 -2 8 C-3.98 8 -5.96 8 -8 8 C-8 5.36 -8 2.72 -8 0 C-4.71023192 -1.09658936 -3.28696233 -0.79953138 0 0 Z " fill="#F7B805" transform="translate(74,56)"/>
<path d="M0 0 C3.28109638 1.12787688 6.29812021 2.60988406 9.3125 4.3125 C10.00988281 4.70050781 10.70726563 5.08851562 11.42578125 5.48828125 C13 7 13 7 13.23046875 9.66796875 C13.15441406 10.43753906 13.07835938 11.20710938 13 12 C11.20601733 11.04600922 9.41488345 10.08665974 7.625 9.125 C6.62726563 8.59132813 5.62953125 8.05765625 4.6015625 7.5078125 C2 6 2 6 0 4 C0 2.68 0 1.36 0 0 Z " fill="#373B3F" transform="translate(67,11)"/>
<path d="M0 0 C0.66 0.33 1.32 0.66 2 1 C2.36103152 7.3782235 2.36103152 7.3782235 0.875 9.9375 C-1.92162472 11.52225401 -3.8493196 11.45947423 -7 11 C-8.875 9 -8.875 9 -10 7 C-9.0925 7.0825 -8.185 7.165 -7.25 7.25 C-3.93540324 7.29139571 -3.93540324 7.29139571 -1.625 5.1875 C0.298162 3.05279952 0.298162 3.05279952 0 0 Z " fill="#2D6AAC" transform="translate(54,25)"/>
<path d="M0 0 C1.74949772 2.62424658 2.65389981 4.55727216 3.625 7.5 C3.88539062 8.2734375 4.14578125 9.046875 4.4140625 9.84375 C5 12 5 12 5 15 C3.35 15 1.7 15 0 15 C0 10.05 0 5.1 0 0 Z " fill="#9A6620" transform="translate(68,80)"/>
<path d="M0 0 C2.97 0 5.94 0 9 0 C9 1.32 9 2.64 9 4 C6.03 4 3.06 4 0 4 C0 2.68 0 1.36 0 0 Z " fill="#81541B" transform="translate(87,62)"/>
<path d="M0 0 C1.98 0 3.96 0 6 0 C6 1.32 6 2.64 6 4 C4.02 4 2.04 4 0 4 C0 2.68 0 1.36 0 0 Z " fill="#81551B" transform="translate(90,56)"/>
</svg>
