<?xml version="1.0" encoding="UTF-8"?>
<svg version="1.1" xmlns="http://www.w3.org/2000/svg" width="100" height="100">
<path d="M0 0 C1.071007 0.11683136 1.071007 0.11683136 2.16365051 0.23602295 C4.05541992 0.52832031 4.05541992 0.52832031 7.05541992 1.52832031 C7.05541992 22.64832031 7.05541992 43.76832031 7.05541992 65.52832031 C0.08416992 67.38457031 -6.88708008 69.24082031 -14.06958008 71.15332031 C-16.2392334 71.74580566 -18.40888672 72.33829102 -20.64428711 72.94873047 C-31.44226079 75.79841247 -39.91294029 77.19738737 -50.94458008 74.52832031 C-53.3269085 74.07811909 -55.71398937 73.6614025 -58.10229492 73.24414062 C-62.34808737 72.49938013 -66.58241997 71.69587999 -70.81958008 70.90332031 C-76.80083008 69.78957031 -82.78208008 68.67582031 -88.94458008 67.52832031 C-88.94458008 45.74832031 -88.94458008 23.96832031 -88.94458008 1.52832031 C-83.99458008 0.86832031 -79.04458008 0.20832031 -73.94458008 -0.47167969 C-71.68485352 -0.79910156 -69.42512695 -1.12652344 -67.09692383 -1.46386719 C-44.47697689 -4.38459619 -22.6024209 -2.47235703 0 0 Z " fill="#9F7E74" transform="translate(90.944580078125,14.4716796875)"/>
<path d="M0 0 C0 21.12 0 42.24 0 64 C-10.828125 66.7225 -10.828125 66.7225 -21.875 69.5 C-25.29335205 70.36141602 -25.29335205 70.36141602 -28.78076172 71.24023438 C-30.58035683 71.69159297 -32.37999575 72.14277692 -34.1796875 72.59375 C-35.11949463 72.83125977 -36.05930176 73.06876953 -37.02758789 73.31347656 C-38.36720581 73.64847168 -38.36720581 73.64847168 -39.73388672 73.99023438 C-40.51110077 74.18564819 -41.28831482 74.38106201 -42.08908081 74.58239746 C-44 75 -44 75 -46 75 C-46 52.56 -46 30.12 -46 7 C-34 5 -34 5 -28 5 C-28 9.29 -28 13.58 -28 18 C-26.96359375 17.7834375 -25.9271875 17.566875 -24.859375 17.34375 C-23.48962552 17.06229463 -22.11983149 16.781056 -20.75 16.5 C-20.06808594 16.35691406 -19.38617188 16.21382812 -18.68359375 16.06640625 C-15.35366879 15.38748951 -12.41667449 15 -9 15 C-9 10.71 -9 6.42 -9 2 C-2.25 0 -2.25 0 0 0 Z " fill="#8A6257" transform="translate(98,16)"/>
<path d="M0 0 C1.00308197 0.08545578 2.00616394 0.17091156 3.03964233 0.25895691 C5.13573177 0.44009426 7.23141086 0.62604068 9.32666016 0.81665039 C12.54871642 1.10775262 15.77208067 1.37802019 18.99609375 1.64648438 C21.03917093 1.8255903 23.08214433 2.00588499 25.125 2.1875 C26.09152496 2.2678096 27.05804993 2.3481192 28.05386353 2.43086243 C28.93923798 2.51402206 29.82461243 2.5971817 30.73681641 2.68286133 C31.5186026 2.75249588 32.30038879 2.82213043 33.10586548 2.89387512 C33.69741425 3.02557602 34.28896301 3.15727692 34.8984375 3.29296875 C35.3934375 4.28296875 35.3934375 4.28296875 35.8984375 5.29296875 C33.9184375 5.62296875 31.9384375 5.95296875 29.8984375 6.29296875 C29.5684375 10.58296875 29.2384375 14.87296875 28.8984375 19.29296875 C26.67072408 19.79940428 24.44119674 20.29786495 22.2109375 20.79296875 C20.96957031 21.07140625 19.72820312 21.34984375 18.44921875 21.63671875 C14.8984375 22.29296875 14.8984375 22.29296875 9.8984375 22.29296875 C9.8984375 17.67296875 9.8984375 13.05296875 9.8984375 8.29296875 C7.7328125 8.21046875 5.5671875 8.12796875 3.3359375 8.04296875 C-10.54216168 7.35571926 -24.34401633 5.16929412 -38.1015625 3.29296875 C-38.1015625 2.96296875 -38.1015625 2.63296875 -38.1015625 2.29296875 C-35.66436028 1.97799782 -33.226835 1.66597094 -30.7890625 1.35546875 C-30.11810547 1.26845703 -29.44714844 1.18144531 -28.75585938 1.09179688 C-26.53927778 0.81082174 -24.32099683 0.55047649 -22.1015625 0.29296875 C-21.28888412 0.19533234 -20.47620575 0.09769592 -19.63890076 -0.00289917 C-12.96957469 -0.71759561 -6.67025046 -0.60890003 0 0 Z " fill="#D0BEB9" transform="translate(60.1015625,11.70703125)"/>
<path d="M0 0 C1.97329021 0.23647067 3.94659737 0.4728 5.91992188 0.70898438 C10.71764494 1.28352579 15.5151342 1.85998332 20.3125 2.4375 C20.3125 2.7675 20.3125 3.0975 20.3125 3.4375 C18.35591993 3.78097487 16.39709329 4.11165539 14.4375 4.4375 C13.34695312 4.623125 12.25640625 4.80875 11.1328125 5 C2.92867194 5.93953348 -4.9291888 5.32692503 -13.0703125 4.125 C-14.01059296 3.99182373 -14.95087341 3.85864746 -15.91964722 3.72143555 C-18.88490245 3.2999485 -21.84867255 2.86890048 -24.8125 2.4375 C-26.83845071 2.14780071 -28.86449175 1.85873237 -30.890625 1.5703125 C-35.82398991 0.8666576 -40.75604786 0.15443234 -45.6875 -0.5625 C-43.21969441 -3.03030559 -42.1683395 -2.95083399 -38.75 -3.25 C-37.87472656 -3.33636719 -36.99945313 -3.42273437 -36.09765625 -3.51171875 C-24.08934038 -3.69053674 -11.90436708 -1.43355196 0 0 Z " fill="#B69B94" transform="translate(49.6875,17.5625)"/>
<path d="M0 0 C1.99863059 0.1934054 3.99732832 0.38611813 5.99609375 0.578125 C10.83153844 1.04412289 15.66598467 1.51941043 20.5 2 C10.63038526 8.57974316 -6.15897415 4.63875663 -17.30566406 3.34594727 C-19.7578568 3.06158892 -22.21082867 2.78498382 -24.6640625 2.50976562 C-26.23963389 2.33117459 -27.81515657 2.15215322 -29.390625 1.97265625 C-30.1157428 1.89032242 -30.8408606 1.80798859 -31.58795166 1.72315979 C-35.58138373 1.25877528 -39.54061549 0.69750614 -43.5 0 C-43.5 -0.33 -43.5 -0.66 -43.5 -1 C-29.62834623 -4.2747058 -13.9840255 -1.39302678 0 0 Z " fill="#E9E1DE" transform="translate(65.5,15)"/>
<path d="M0 0 C1.00308197 0.08545578 2.00616394 0.17091156 3.03964233 0.25895691 C5.13573177 0.44009426 7.23141086 0.62604068 9.32666016 0.81665039 C12.54871642 1.10775262 15.77208067 1.37802019 18.99609375 1.64648438 C21.03917093 1.8255903 23.08214433 2.00588499 25.125 2.1875 C26.09152496 2.2678096 27.05804993 2.3481192 28.05386353 2.43086243 C28.93923798 2.51402206 29.82461243 2.5971817 30.73681641 2.68286133 C31.5186026 2.75249588 32.30038879 2.82213043 33.10586548 2.89387512 C33.69741425 3.02557602 34.28896301 3.15727692 34.8984375 3.29296875 C35.3934375 4.28296875 35.3934375 4.28296875 35.8984375 5.29296875 C29.55937209 6.32782384 23.82703026 6.16645053 17.44921875 5.55078125 C16.47357468 5.4629538 15.4979306 5.37512634 14.49272156 5.28463745 C12.44261751 5.09852642 10.39287748 4.90836545 8.34350586 4.71435547 C5.21086745 4.41796212 2.07731266 4.13367963 -1.05664062 3.8515625 C-3.05475185 3.66867044 -5.05280113 3.48510008 -7.05078125 3.30078125 C-7.98419846 3.21531036 -8.91761566 3.12983948 -9.87931824 3.04177856 C-14.00816128 2.64889948 -18.05385021 2.23798049 -22.1015625 1.29296875 C-22.1015625 0.96296875 -22.1015625 0.63296875 -22.1015625 0.29296875 C-14.59413093 -0.61422138 -7.52294867 -0.68673938 0 0 Z " fill="#B89E97" transform="translate(60.1015625,11.70703125)"/>
<path d="M0 0 C3.82946843 1.45255699 5.12050295 3.42895561 7 7 C6.01 7 5.02 7 4 7 C4 9.97 4 12.94 4 16 C2.35 15.67 0.7 15.34 -1 15 C-1 12.03 -1 9.06 -1 6 C-1.99 6 -2.98 6 -4 6 C-2.84826645 3.53199953 -1.95216435 1.95216435 0 0 Z " fill="#3E3C3C" transform="translate(13,59)"/>
<path d="M0 0 C4.62 0.66 9.24 1.32 14 2 C14.33 3.32 14.66 4.64 15 6 C10.33333333 5.33333333 5.66666667 4.66666667 1 4 C0.67 2.68 0.34 1.36 0 0 Z " fill="#4F4C4C" transform="translate(7,75)"/>
<path d="M0 0 C-2.28176413 2.07384637 -3.44323483 2.98397191 -6.578125 3.07421875 C-7.90070312 2.88279297 -7.90070312 2.88279297 -9.25 2.6875 C-10.14203125 2.56761719 -11.0340625 2.44773437 -11.953125 2.32421875 C-12.62859375 2.21722656 -13.3040625 2.11023438 -14 2 C-14 1.67 -14 1.34 -14 1 C-9.32798795 -0.20568053 -4.78503708 -0.09382426 0 0 Z " fill="#DED2CD" transform="translate(36,13)"/>
</svg>
