<?xml version="1.0" encoding="UTF-8"?>
<svg version="1.1" xmlns="http://www.w3.org/2000/svg" width="100" height="100">
<path d="M0 0 C7.34299127 -0.55418802 15.00859372 0.62794986 20.8125 5.53125 C24 9.22585227 24 9.22585227 24 12 C24.57967529 11.98428955 25.15935059 11.9685791 25.7565918 11.95239258 C28.40012739 11.88977209 31.04350655 11.85092482 33.6875 11.8125 C35.05551758 11.77479492 35.05551758 11.77479492 36.45117188 11.73632812 C37.33740234 11.72666016 38.22363281 11.71699219 39.13671875 11.70703125 C39.94842529 11.6913208 40.76013184 11.67561035 41.59643555 11.65942383 C46.43206603 12.34461474 49.78316982 15.53321906 53.13183594 18.88891602 C53.90903992 19.66304337 54.6862439 20.43717072 55.48699951 21.23475647 C56.31113342 22.0660759 57.13526733 22.89739532 57.984375 23.75390625 C58.84057434 24.61056381 59.69677368 25.46722137 60.57891846 26.34983826 C62.38327403 28.15720953 64.18520393 29.96700524 65.98486328 31.77905273 C68.74848206 34.560972 71.52006337 37.33476211 74.29296875 40.10742188 C76.04474437 41.86411124 77.79606246 43.62125702 79.546875 45.37890625 C80.37910583 46.21224991 81.21133667 47.04559357 82.06878662 47.90419006 C82.83338196 48.67516525 83.59797729 49.44614044 84.38574219 50.24047852 C85.06127136 50.91981949 85.73680054 51.59916046 86.43280029 52.29908752 C88.60221361 54.6535942 88.98549512 55.90934448 89.5 59.125 C88.97870555 63.16503195 88.69470981 63.76224122 86.11328125 66.58984375 C85.47793457 67.2859375 84.84258789 67.98203125 84.18798828 68.69921875 C80.08669263 73.01194026 75.90489551 77.23850767 71.6875 81.4375 C70.78193359 82.34693359 69.87636719 83.25636719 68.94335938 84.19335938 C68.07904297 85.05638672 67.21472656 85.91941406 66.32421875 86.80859375 C65.54135498 87.59032959 64.75849121 88.37206543 63.9519043 89.17749023 C61.44419805 91.51895704 60.30361865 91.95142102 56.875 92.5 C52.78396492 91.97212451 52.14411916 91.60416 49.26708984 88.9675293 C48.56847839 88.32979584 47.86986694 87.69206238 47.15008545 87.03500366 C43.67059351 83.74174904 40.24192128 80.40447036 36.8515625 77.01953125 C36.1129599 76.28425705 35.3743573 75.54898285 34.6133728 74.79142761 C33.06760587 73.25068545 31.52315617 71.70862069 29.97998047 70.1652832 C27.61575519 67.80326382 25.24361835 65.44938262 22.87109375 63.09570312 C21.36409481 61.59163515 19.85756741 60.08709453 18.3515625 58.58203125 C17.64327301 57.88092728 16.93498352 57.1798233 16.20523071 56.45747375 C15.55049774 55.79966415 14.89576477 55.14185455 14.22119141 54.46411133 C13.35803818 53.60309563 13.35803818 53.60309563 12.47744751 52.72468567 C9.31524788 49.03331907 8.75010797 46.04313713 8.69140625 41.24609375 C8.66626953 40.14458984 8.64113281 39.04308594 8.61523438 37.90820312 C8.58001964 35.59055164 8.54878271 33.27283637 8.52148438 30.95507812 C8.49505859 29.85486328 8.46863281 28.75464844 8.44140625 27.62109375 C8.42795166 26.6148999 8.41449707 25.60870605 8.40063477 24.57202148 C7.93854977 21.60549774 7.25009665 20.88049849 5 19 C4.09337411 17.34009445 3.24174419 15.6493552 2.4375 13.9375 C1.11349276 11.12862483 0.20354957 9.20354957 -2 7 C-0.35 6.67 1.3 6.34 3 6 C3.83819158 7.62249941 4.6704116 9.24808497 5.5 10.875 C5.9640625 11.77992187 6.428125 12.68484375 6.90625 13.6171875 C8 16 8 16 8 18 C8.66 18 9.32 18 10 18 C10.07089844 17.37609375 10.14179688 16.7521875 10.21484375 16.109375 C11 14 11 14 13.06640625 12.953125 C13.89011719 12.72109375 14.71382812 12.4890625 15.5625 12.25 C16.38878906 12.00765625 17.21507813 11.7653125 18.06640625 11.515625 C18.70449219 11.34546875 19.34257812 11.1753125 20 11 C19.67 10.01 19.34 9.02 19 8 C16.75256244 6.84979475 16.75256244 6.84979475 14 6 C13.071875 5.649375 12.14375 5.29875 11.1875 4.9375 C7.43162562 3.83283107 3.89161318 3.40258067 0 3 C0 2.01 0 1.02 0 0 Z M19 24 C19.26676204 25.98491642 19.26676204 25.98491642 20 28 C20.99 28.33 21.98 28.66 23 29 C24.64555699 27.77190909 24.64555699 27.77190909 26 26 C25.77242269 23.83700789 25.77242269 23.83700789 25 22 C22.53721199 22 21.14775881 22.85452863 19 24 Z " fill="#CEA26C" transform="translate(7,2)"/>
<path d="M0 0 C3.00877332 1.69223003 5.27416462 4.02597326 7.65649414 6.48144531 C8.44706207 7.27838051 8.44706207 7.27838051 9.25360107 8.09141541 C10.93154101 9.78611731 12.59873642 11.49096123 14.26586914 13.19628906 C15.40319659 14.34866652 16.5412098 15.50036758 17.67993164 16.65136719 C20.46658906 19.47106091 23.24365706 22.29989495 26.01586914 25.13378906 C20.91138092 31.31513775 15.33291972 36.93201784 9.64086914 42.57128906 C8.25061523 43.95477539 8.25061523 43.95477539 6.83227539 45.36621094 C4.56241068 47.62437531 2.29023376 49.88015848 0.01586914 52.13378906 C-5.91548281 47.18562317 -11.47759041 41.92369268 -16.98413086 36.50878906 C-17.86713867 35.66316406 -18.75014648 34.81753906 -19.65991211 33.94628906 C-20.4887793 33.12902344 -21.31764648 32.31175781 -22.17163086 31.46972656 C-22.92831055 30.73286621 -23.68499023 29.99600586 -24.46459961 29.23681641 C-25.98413086 27.13378906 -25.98413086 27.13378906 -26.03417969 25.20385742 C-24.52024253 22.21927869 -22.33713632 20.01901607 -19.99584961 17.67675781 C-19.49624222 17.1695369 -18.99663483 16.66231598 -18.48188782 16.13972473 C-17.42572331 15.072776 -16.36557857 14.00975454 -15.30175781 12.95043945 C-13.67362753 11.32328453 -12.06800417 9.67595637 -10.46264648 8.02636719 C-9.4333503 6.99186621 -8.40279284 5.95861831 -7.37084961 4.92675781 C-6.89153488 4.43104782 -6.41222015 3.93533783 -5.91838074 3.42460632 C-2.60166051 0.17542881 -2.60166051 0.17542881 0 0 Z " fill="#C59A66" transform="translate(61.984130859375,33.8662109375)"/>
<path d="M0 0 C3.00877332 1.69223003 5.27416462 4.02597326 7.65649414 6.48144531 C8.44706207 7.27838051 8.44706207 7.27838051 9.25360107 8.09141541 C10.93154101 9.78611731 12.59873642 11.49096123 14.26586914 13.19628906 C15.40319659 14.34866652 16.5412098 15.50036758 17.67993164 16.65136719 C20.46658906 19.47106091 23.24365706 22.29989495 26.01586914 25.13378906 C20.91138092 31.31513775 15.33291972 36.93201784 9.64086914 42.57128906 C8.25061523 43.95477539 8.25061523 43.95477539 6.83227539 45.36621094 C4.56241068 47.62437531 2.29023376 49.88015848 0.01586914 52.13378906 C-5.91548281 47.18562317 -11.47759041 41.92369268 -16.98413086 36.50878906 C-17.86713867 35.66316406 -18.75014648 34.81753906 -19.65991211 33.94628906 C-20.4887793 33.12902344 -21.31764648 32.31175781 -22.17163086 31.46972656 C-22.92831055 30.73286621 -23.68499023 29.99600586 -24.46459961 29.23681641 C-25.98413086 27.13378906 -25.98413086 27.13378906 -26.03417969 25.20385742 C-24.52024253 22.21927869 -22.33713632 20.01901607 -19.99584961 17.67675781 C-19.49624222 17.1695369 -18.99663483 16.66231598 -18.48188782 16.13972473 C-17.42572331 15.072776 -16.36557857 14.00975454 -15.30175781 12.95043945 C-13.67362753 11.32328453 -12.06800417 9.67595637 -10.46264648 8.02636719 C-9.4333503 6.99186621 -8.40279284 5.95861831 -7.37084961 4.92675781 C-6.89153488 4.43104782 -6.41222015 3.93533783 -5.91838074 3.42460632 C-2.60166051 0.17542881 -2.60166051 0.17542881 0 0 Z M-3.32250977 4.24511719 C-4.29038297 5.21330802 -5.2527468 6.18702556 -6.21069336 7.16503906 C-6.97221207 7.93080261 -6.97221207 7.93080261 -7.74911499 8.71203613 C-9.37385921 10.34799971 -10.99152326 11.9907715 -12.60913086 13.63378906 C-13.70763074 14.74231647 -14.80658341 15.85039539 -15.90600586 16.95800781 C-18.60400104 19.67808661 -21.29566513 22.40429251 -23.98413086 25.13378906 C-19.45421289 30.57111962 -14.6411887 35.59837837 -9.60913086 40.57128906 C-8.50504883 41.66860352 -8.50504883 41.66860352 -7.37866211 42.78808594 C-5.58277012 44.57231629 -3.78457101 46.3541503 -1.98413086 48.13378906 C1.5513739 46.62846487 3.80526967 44.5766204 6.49243164 41.85253906 C7.74540039 40.58990234 7.74540039 40.58990234 9.02368164 39.30175781 C9.88735352 38.42132813 10.75102539 37.54089844 11.64086914 36.63378906 C12.51227539 35.75335938 13.38368164 34.87292969 14.28149414 33.96582031 C15.89265174 32.33720435 17.50175181 30.7065486 19.1081543 29.07324219 C20.40519253 27.75462538 21.70799712 26.44166109 23.01586914 25.13378906 C22.38495361 24.50811035 21.75403809 23.88243164 21.10400391 23.23779297 C18.76687279 20.91769288 16.43200136 18.59536614 14.09863281 16.27148438 C13.08781329 15.26569703 12.07609852 14.26080858 11.06347656 13.25683594 C9.60905058 11.81452423 8.15786299 10.36902234 6.70727539 8.92285156 C5.83272705 8.05354004 4.95817871 7.18422852 4.05712891 6.28857422 C2.01586914 4.13378906 2.01586914 4.13378906 1.01586914 2.13378906 C-1.26180877 1.91040437 -1.26180877 1.91040437 -3.32250977 4.24511719 Z " fill="#B38957" transform="translate(61.984130859375,33.8662109375)"/>
<path d="M0 0 C7.40607548 -0.55894909 14.73044537 0.74387812 20.77734375 5.35546875 C23.23382386 8.01131536 23.99916422 9.99404504 24.5 13.5625 C24.67756148 17.18832106 24.67756148 17.18832106 27.5625 19.5625 C30 22 30 22 30.625 25 C29.77618008 29.0743356 28.32274404 30.54405875 25 33 C22 33.625 22 33.625 19 33 C16.0625 30.9375 16.0625 30.9375 14 28 C13.875 24.4375 13.875 24.4375 15 21 C17.4375 18.5625 17.4375 18.5625 20 17 C20.66 17 21.32 17 22 17 C20.70368703 10.88097488 20.70368703 10.88097488 16.6875 6.5625 C15.800625 6.376875 14.91375 6.19125 14 6 C13.071875 5.649375 12.14375 5.29875 11.1875 4.9375 C7.43162562 3.83283107 3.89161318 3.40258067 0 3 C0 2.01 0 1.02 0 0 Z M19 24 C19.26676204 25.98491642 19.26676204 25.98491642 20 28 C20.99 28.33 21.98 28.66 23 29 C24.64555699 27.77190909 24.64555699 27.77190909 26 26 C25.77242269 23.83700789 25.77242269 23.83700789 25 22 C22.53721199 22 21.14775881 22.85452863 19 24 Z " fill="#C79C65" transform="translate(7,2)"/>
<path d="M0 0 C7.52271244 -0.56775188 14.50628628 0.90088709 20.8125 5.25 C23.84270784 8.28020784 24.29779967 11.10775939 24.375 15.1875 C24.2577219 18.1239633 23.93786758 20.18639727 23 23 C20.9375 23.6875 20.9375 23.6875 19 24 C19.33 23.29875 19.66 22.5975 20 21.875 C21.44255401 17.72765724 21.37248543 14.48994174 20.3125 10.25 C18.58566258 7.28970729 17.24997341 6.96021942 14 6 C13.071875 5.649375 12.14375 5.29875 11.1875 4.9375 C7.43162562 3.83283107 3.89161318 3.40258067 0 3 C0 2.01 0 1.02 0 0 Z " fill="#E5D9AE" transform="translate(7,2)"/>
<path d="M0 0 C-0.33 2.64 -0.66 5.28 -1 8 C0.65 8.33 2.3 8.66 4 9 C4 6.36 4 3.72 4 1 C4.99 1.66 5.98 2.32 7 3 C7.39964378 6.1305429 7.52149743 8.13083761 5.875 10.875 C3.11909116 12.52854531 1.14924548 12.39365568 -2 12 C-3.875 10.875 -3.875 10.875 -5 9 C-5.41062354 5.71501168 -5.6171336 3.84154581 -3.625 1.125 C-2 0 -2 0 0 0 Z " fill="#DEB278" transform="translate(28,21)"/>
<path d="M0 0 C-0.58110671 3.42754467 -1.68553624 5.04538661 -4.16015625 7.453125 C-4.78857422 8.071875 -5.41699219 8.690625 -6.06445312 9.328125 C-6.72380859 9.96234375 -7.38316406 10.5965625 -8.0625 11.25 C-8.72572266 11.8996875 -9.38894531 12.549375 -10.07226562 13.21875 C-11.70829317 14.8194676 -13.35090912 16.41276193 -15 18 C-15.66 17.67 -16.32 17.34 -17 17 C-15.68692628 14.10147635 -14.27315362 12.01722783 -12.03125 9.765625 C-11.17466797 8.90517578 -11.17466797 8.90517578 -10.30078125 8.02734375 C-9.70652344 7.44082031 -9.11226563 6.85429688 -8.5 6.25 C-7.90574219 5.64800781 -7.31148437 5.04601563 -6.69921875 4.42578125 C-6.12816406 3.85730469 -5.55710937 3.28882813 -4.96875 2.703125 C-4.44732422 2.18395508 -3.92589844 1.66478516 -3.38867188 1.12988281 C-2 0 -2 0 0 0 Z " fill="#B28857" transform="translate(76,57)"/>
<path d="M0 0 C1.32 0 2.64 0 4 0 C4.83819158 1.62249941 5.6704116 3.24808497 6.5 4.875 C6.9640625 5.77992187 7.428125 6.68484375 7.90625 7.6171875 C9 10 9 10 9 12 C9.66 12 10.32 12 11 12 C11 13.65 11 15.3 11 17 C7.94195534 15.94093691 7.05105968 15.08599525 5.3671875 12.25 C4.87476563 11.1775 4.38234375 10.105 3.875 9 C1.9321098 4.65559984 1.9321098 4.65559984 -1 1 C-0.67 0.67 -0.34 0.34 0 0 Z " fill="#E5DBB0" transform="translate(6,8)"/>
<path d="M0 0 C-1.31307372 2.89852365 -2.72684638 4.98277217 -4.96875 7.234375 C-5.82533203 8.09482422 -5.82533203 8.09482422 -6.69921875 8.97265625 C-7.59060547 9.85244141 -7.59060547 9.85244141 -8.5 10.75 C-9.39138672 11.65298828 -9.39138672 11.65298828 -10.30078125 12.57421875 C-10.87183594 13.14269531 -11.44289063 13.71117188 -12.03125 14.296875 C-12.55267578 14.81604492 -13.07410156 15.33521484 -13.61132812 15.87011719 C-15 17 -15 17 -17 17 C-15.68692628 14.10147635 -14.27315362 12.01722783 -12.03125 9.765625 C-11.17466797 8.90517578 -11.17466797 8.90517578 -10.30078125 8.02734375 C-9.70652344 7.44082031 -9.11226562 6.85429688 -8.5 6.25 C-7.90574219 5.64800781 -7.31148437 5.04601563 -6.69921875 4.42578125 C-6.12816406 3.85730469 -5.55710937 3.28882813 -4.96875 2.703125 C-4.44732422 2.18395508 -3.92589844 1.66478516 -3.38867188 1.12988281 C-2 0 -2 0 0 0 Z " fill="#B38857" transform="translate(70,51)"/>
<path d="M0 0 C0.99 0.33 1.98 0.66 3 1 C-2.28 6.28 -7.56 11.56 -13 17 C-13.33 16.01 -13.66 15.02 -14 14 C-9.38 9.38 -4.76 4.76 0 0 Z " fill="#B78C59" transform="translate(61,45)"/>
<path d="M0 0 C0.99 0 1.98 0 3 0 C3.125 7.625 3.125 7.625 2 11 C-0.0625 11.6875 -0.0625 11.6875 -2 12 C-1.67 11.319375 -1.34 10.63875 -1 9.9375 C0.17307315 6.49159762 0.14180493 3.61602578 0 0 Z " fill="#DFCEA2" transform="translate(28,14)"/>
<path d="M0 0 C1.485 0.99 1.485 0.99 3 2 C3 2.66 3 3.32 3 4 C3.66 4 4.32 4 5 4 C5 5.65 5 7.3 5 9 C3.0625 8.4375 3.0625 8.4375 1 7 C0.25 3.375 0.25 3.375 0 0 Z " fill="#E3D4A8" transform="translate(12,16)"/>
</svg>
