<?xml version="1.0" encoding="UTF-8"?>
<svg version="1.1" xmlns="http://www.w3.org/2000/svg" width="100" height="100">
<path d="M0 0 C7.34543798 7.61166473 11.98132727 16.13102408 12.49609375 26.76953125 C12.53476563 27.45273437 12.5734375 28.1359375 12.61328125 28.83984375 C13.07803294 43.24714613 8.98120198 53.87110481 -0.7578125 64.3984375 C-9.27002879 71.74824588 -19.46506577 75.20528613 -30.59765625 75.11328125 C-41.61989118 74.14332458 -52.52282083 69.21541468 -60.015625 61.0234375 C-62.62267012 57.79939336 -64.46681597 54.37097511 -66.25390625 50.64453125 C-66.70830078 49.73380859 -66.70830078 49.73380859 -67.171875 48.8046875 C-72.06611686 38.8204341 -72.41947065 25.22224831 -69.00390625 14.64453125 C-65.34087975 6.33823173 -58.75928426 -0.46256246 -50.50390625 -4.23046875 C-33.00726055 -10.9909729 -15.20121171 -13.54117299 0 0 Z M-44.75390625 -2.79296875 C-45.7903125 -2.34050781 -46.82671875 -1.88804688 -47.89453125 -1.421875 C-49.44210987 -0.71527099 -50.9822522 0.00870423 -52.50390625 0.76953125 C-52.50390625 4.72953125 -52.50390625 8.68953125 -52.50390625 12.76953125 C-49.50810628 13.49432156 -46.52151186 14.14892086 -43.50390625 14.76953125 C-42.71113281 14.96804687 -41.91835938 15.1665625 -41.1015625 15.37109375 C-33.93549346 16.74158994 -29.77536017 14.19612187 -23.77734375 10.3359375 C-23.02710937 9.81902344 -22.276875 9.30210938 -21.50390625 8.76953125 C-21.59136909 7.33091831 -21.69955973 5.89355617 -21.81640625 4.45703125 C-21.87441406 3.65652344 -21.93242188 2.85601562 -21.9921875 2.03125 C-22.60080409 -0.65874243 -23.3378386 -1.56269836 -25.50390625 -3.23046875 C-32.69503041 -5.80841892 -37.77666804 -5.887146 -44.75390625 -2.79296875 Z M-20.50390625 -1.23046875 C-20.42014692 4.0463688 -19.39486867 7.0591949 -15.75 10.84375 C-14.64112978 11.87682528 -13.51696655 12.89370336 -12.37890625 13.89453125 C-11.83484131 14.39202881 -11.29077637 14.88952637 -10.73022461 15.40209961 C-8.27938307 17.41839731 -6.55556867 18.71532185 -3.32519531 18.88183594 C0.40232832 18.60845878 0.40232832 18.60845878 3.49609375 16.76953125 C3.49609375 10.30643946 1.86252799 7.15652027 -2.61328125 2.53515625 C-6.48340929 -1.07909556 -9.37589235 -3.43104668 -14.75390625 -3.60546875 C-18.52882533 -3.6277082 -18.52882533 -3.6277082 -20.50390625 -1.23046875 Z M-52.50390625 15.76953125 C-58.07502951 22.3915743 -58.07502951 22.3915743 -61.25390625 30.20703125 C-61.00640625 31.38265625 -60.75890625 32.55828125 -60.50390625 33.76953125 C-60.33890625 34.75566406 -60.17390625 35.74179687 -60.00390625 36.7578125 C-59.21103966 40.20595628 -58.41143541 42.78151355 -56.50390625 45.76953125 C-51.70535298 48.2052107 -46.8355567 48.76953125 -41.50390625 48.76953125 C-39.82012869 46.86420401 -38.35058691 45.0150105 -36.87890625 42.95703125 C-36.4715625 42.40982422 -36.06421875 41.86261719 -35.64453125 41.29882812 C-33.81738102 38.80313452 -32.48816159 36.72229727 -31.50390625 33.76953125 C-32.07365467 31.14983374 -32.70072498 28.65073033 -33.44140625 26.08203125 C-34.12203125 23.66890625 -34.80265625 21.25578125 -35.50390625 18.76953125 C-41.11390625 17.77953125 -46.72390625 16.78953125 -52.50390625 15.76953125 Z M-2.5234375 20.375 C-6.96873837 23.5051231 -8.53202333 29.63331453 -9.50390625 34.76953125 C-8.8799707 37.42312153 -8.8799707 37.42312153 -7.50390625 39.76953125 C-7.07851562 40.58035156 -6.653125 41.39117187 -6.21484375 42.2265625 C-5.77398437 43.00386719 -5.333125 43.78117187 -4.87890625 44.58203125 C-4.43289062 45.37222656 -3.986875 46.16242188 -3.52734375 46.9765625 C-3.18960938 47.56824219 -2.851875 48.15992187 -2.50390625 48.76953125 C0.46609375 48.76953125 3.43609375 48.76953125 6.49609375 48.76953125 C8.52675618 44.5084691 8.98013643 40.41949475 9.24609375 35.76953125 C9.30152344 35.07085937 9.35695313 34.3721875 9.4140625 33.65234375 C9.7374365 28.45876139 9.24386123 24.85340786 5.87109375 20.83203125 C2.89975128 19.50274646 0.60627544 19.46485834 -2.5234375 20.375 Z M-67.50390625 28.76953125 C-68.36208517 37.21782594 -66.2705923 44.20191654 -62.50390625 51.76953125 C-61.84390625 52.09953125 -61.18390625 52.42953125 -60.50390625 52.76953125 C-58.51916477 44.6651702 -61.15315565 37.51792809 -63.50390625 29.76953125 C-64.82390625 29.43953125 -66.14390625 29.10953125 -67.50390625 28.76953125 Z M-39.50390625 49.76953125 C-39.52950786 51.92255881 -39.52950786 51.92255881 -38.50390625 53.76953125 C-38.14554688 54.53652344 -37.7871875 55.30351563 -37.41796875 56.09375 C-36.99257813 56.87363281 -36.5671875 57.65351562 -36.12890625 58.45703125 C-35.70867188 59.24464844 -35.2884375 60.03226563 -34.85546875 60.84375 C-33.57313654 63.07693413 -33.57313654 63.07693413 -30.50390625 63.76953125 C-21.22327821 65.04294403 -21.22327821 65.04294403 -12.80859375 61.8671875 C-10.80813932 59.58991742 -9.11258472 57.33543989 -7.50390625 54.76953125 C-6.84390625 53.77953125 -6.18390625 52.78953125 -5.50390625 51.76953125 C-6.1194434 45.97001721 -8.08006727 40.6584616 -12.50390625 36.76953125 C-25.59136033 33.00354956 -33.91803898 37.6619446 -39.50390625 49.76953125 Z M-40.50390625 68.76953125 C-34.92902001 72.48612208 -29.04997983 72.30978492 -22.50390625 71.76953125 C-19.64625131 71.00033462 -17.21229638 69.99597206 -14.50390625 68.76953125 C-14.83390625 68.10953125 -15.16390625 67.44953125 -15.50390625 66.76953125 C-18.54514121 66.51960798 -21.58498858 66.29403431 -24.62890625 66.08203125 C-25.9128125 65.9727832 -25.9128125 65.9727832 -27.22265625 65.86132812 C-32.52233051 65.51481096 -35.86843075 65.81346573 -40.50390625 68.76953125 Z " fill="#1C292D" transform="translate(79.50390625,18.23046875)"/>
</svg>
