<svg width="600" height="600" viewBox="0 0 600 600" fill="none" xmlns="http://www.w3.org/2000/svg">
<path d="M180 108C181.98 113.94 183.96 119.88 186 126C191.19 125.027 196.38 124.053 201.727 123.05C220.981 120.153 238.928 119.225 258.375 119.203C265.135 119.195 271.895 119.188 278.859 119.18C289.324 119.215 289.324 119.215 300 119.25C306.976 119.227 313.953 119.204 321.141 119.18C327.9 119.188 334.66 119.195 341.625 119.203C347.743 119.21 353.861 119.217 360.164 119.224C378.534 120.023 395.943 122.613 414 126C415.98 120.06 417.96 114.12 420 108C452.782 106.333 470.857 105.501 498 126C555.037 211.161 571.973 327.777 553.5 427.5C546 450 546 450 535.5 462C518.194 469.692 505.04 473.603 486 474C464.71 456.801 454.674 437.427 443.25 412.875C433.409 387.946 433.409 387.946 414 372C397.216 371.187 380.59 370.724 363.797 370.57C358.81 370.522 353.823 370.474 348.685 370.424C338.124 370.341 327.563 370.276 317.001 370.229C300.854 370.126 284.715 369.862 268.57 369.598C258.313 369.537 248.055 369.486 237.797 369.445C230.558 369.288 230.558 369.288 223.174 369.127C201.623 369.211 188.833 369.863 171.362 383.042C155.774 404.617 145.789 428.378 134.789 452.508C126 468 126 468 108 474C84.4029 469.786 70.3506 467.221 54.75 448.5C21.8868 368.168 41.987 260.879 71.625 182.625C83.3154 155.911 95.0902 130.144 118.5 111.75C139.196 106.001 158.565 107.286 180 108Z" fill="#028DAB"/>
<path d="M180 108C181.98 113.94 183.96 119.88 186 126C193.745 124.533 193.745 124.533 201.647 123.037C221.373 120.094 239.719 119.315 259.641 119.414C266.563 119.433 273.485 119.453 280.617 119.473C287.756 119.523 294.895 119.573 302.25 119.625C313.167 119.666 313.167 119.666 324.305 119.707C342.203 119.777 360.102 119.876 378 120C375.464 137.642 372.826 155.258 370.125 172.875C369.417 177.875 368.71 182.876 367.98 188.027C367.226 192.842 366.472 197.657 365.695 202.617C365.035 207.048 364.376 211.478 363.696 216.042C359.204 230.575 354.021 236.782 342 246C322.5 248.391 322.5 248.391 300 248.25C292.575 248.296 285.15 248.343 277.5 248.391C258 246 258 246 246.633 238.617C238.342 225.346 237.002 215.431 235.875 199.875C235.283 192.601 235.283 192.601 234.68 185.18C234.343 179.646 234.343 179.646 234 174C222.12 174 210.24 174 198 174C199.485 180.126 199.485 180.126 201 186.375C206.922 221.166 207.844 244.928 186.927 274.686C184.518 277.966 182.108 281.246 179.625 284.625C158.421 315.419 141.164 346.271 126.375 380.625C124.685 384.523 122.994 388.42 121.252 392.436C110.828 417.271 102.934 442.041 96 468C82.125 466.875 82.125 466.875 66 462C32.4438 420.055 38.4982 356.849 42 306C50.5041 242.594 64.323 154.318 118.5 111.75C139.196 106.001 158.565 107.285 180 108Z" fill="#36CEEC"/>
<path d="M454.781 106.031C472.961 108.739 483.322 114.956 498 126C555.037 211.161 571.973 327.777 553.5 427.5C546 450 546 450 534.375 462.375C522 468 522 468 504 468C502.391 462.547 500.783 457.095 499.125 451.477C478.83 386.385 453.909 318.066 407.625 266.625C385.036 226.547 397.908 176.467 408 133.125C417.416 103.11 424.322 107.194 454.781 106.031Z" fill="#33C4E0"/>
<path d="M198 180C205.159 202.372 205.777 222.629 204 246C196.358 260.123 189.019 271.84 179.625 284.625C158.421 315.419 141.164 346.271 126.375 380.625C124.685 384.523 122.994 388.42 121.252 392.436C110.828 417.271 102.934 442.041 96 468C82.125 466.875 82.125 466.875 66 462C32.5928 420.241 38.1566 356.676 42 306C46.2086 275.633 52.8961 245.811 60 216C77.82 210.06 95.64 204.12 114 198C115.98 203.94 117.96 209.88 120 216C114.06 217.98 108.12 219.96 102 222C102 229.92 102 237.84 102 246C107.94 247.98 113.88 249.96 120 252C121.98 257.94 123.96 263.88 126 270C138.091 274.399 138.091 274.399 150 276C150 266.1 150 256.2 150 246C159.9 246 169.8 246 180 246C180 238.08 180 230.16 180 222C170.1 222 160.2 222 150 222C146.04 210.12 142.08 198.24 138 186C158.434 181.329 177.046 179.401 198 180Z" fill="#36CFED"/>
<path d="M180 108C196.269 132.403 195.472 150.929 198 180C180.18 183.96 162.36 187.92 144 192C145.98 201.9 147.96 211.8 150 222C159.9 222 169.8 222 180 222C180 229.92 180 237.84 180 246C170.1 246 160.2 246 150 246C150 255.9 150 265.8 150 276C140.1 274.02 130.2 272.04 120 270C120 264.06 120 258.12 120 252C112.08 250.02 104.16 248.04 96 246C97.98 236.1 99.96 226.2 102 216C107.94 216 113.88 216 120 216C118.02 212.04 116.04 208.08 114 204C110.04 205.98 106.08 207.96 102 210C90.0024 210.24 77.9972 210.261 66 210C87.7277 135.928 87.7277 135.928 118.5 111.75C139.924 105.799 157.737 106.205 180 108Z" fill="#72D9EE"/>
<path d="M222 120C263.58 120 305.16 120 348 120C342 150 342 150 332.531 160.805C312.309 170.818 293.506 169.936 271.5 169.125C267.316 169.044 263.131 168.963 258.82 168.879C248.545 168.668 238.272 168.345 228 168C226.02 152.16 224.04 136.32 222 120Z" fill="#70DCF2"/>
<path d="M120 192C129.9 193.98 139.8 195.96 150 198C150 205.92 150 213.84 150 222C159.9 222 169.8 222 180 222C180 229.92 180 237.84 180 246C170.1 246 160.2 246 150 246C150 255.9 150 265.8 150 276C140.1 274.02 130.2 272.04 120 270C120 264.06 120 258.12 120 252C112.08 250.02 104.16 248.04 96 246C97.98 236.1 99.96 226.2 102 216C107.94 216 113.88 216 120 216C120 208.08 120 200.16 120 192Z" fill="#2ABFDD"/>
<path d="M234.375 270.75C252 276 252 276 264 294C262.055 313.935 260.353 321.647 246 336C206.538 332.539 206.538 332.539 198 324C195.277 292.689 195.277 292.689 204.75 276.375C216 270 216 270 234.375 270.75Z" fill="#8EA8BE"/>
<path d="M375.375 271.5C390 276 390 276 402 288C403.875 306 403.875 306 402 324C382.605 336.93 376.491 338.811 354 336C342.75 329.25 342.75 329.25 336 318C336.75 299.625 336.75 299.625 342 282C360 270 360 270 375.375 271.5Z" fill="#8EA9BF"/>
<path d="M420 108C473.446 105.282 473.446 105.282 498 126C498 131.94 498 137.88 498 144C487.373 143.152 476.748 142.271 466.125 141.375C460.208 140.888 454.291 140.401 448.195 139.899C432 138 432 138 414 132C415.98 124.08 417.96 116.16 420 108Z" fill="#1D2F33"/>
<path d="M180 108C181.98 115.92 183.96 123.84 186 132C129.54 145.777 129.54 145.777 102 144C103.979 129.155 105.478 122.017 117.375 112.5C138.655 105.952 157.772 107.259 180 108Z" fill="#1D2D31"/>
<path d="M163.125 155.625C174.448 155.811 174.448 155.811 186 156C186 163.92 186 171.84 186 180C168.707 185.764 157.809 186.635 139.875 186.375C132.601 186.294 132.601 186.294 125.18 186.211C119.646 186.107 119.646 186.107 114 186C115.875 174.375 115.875 174.375 120 162C136.505 156.499 146.157 155.347 163.125 155.625Z" fill="#EAF0F1"/>
<path d="M360 282C375.75 284.25 375.75 284.25 390 288C390.75 302.25 390.75 302.25 390 318C386.04 321.96 382.08 325.92 378 330C365.25 327.75 365.25 327.75 354 324C350.25 309.75 350.25 309.75 348 294C351.96 290.04 355.92 286.08 360 282Z" fill="#727E93"/>
<path d="M498 426C499.98 439.86 501.96 453.72 504 468C498.06 469.98 492.12 471.96 486 474C474 463.5 474 463.5 462 450C462 442.08 462 434.16 462 426C476.946 418.527 482.465 421.34 498 426Z" fill="#05819C"/>
<path d="M192 126C201.9 126 211.8 126 222 126C225.96 141.84 229.92 157.68 234 174C222.12 174 210.24 174 198 174C189.874 157.747 191.61 143.944 192 126Z" fill="#4CB0C6"/>
<path d="M216 282C226.053 283.716 236.063 285.707 246 288C248.293 297.937 250.284 307.947 252 318C246 324 246 324 231 324.75C216 324 216 324 210 318C209.25 303 209.25 303 210 288C211.98 286.02 213.96 284.04 216 282Z" fill="#707C92"/>
<path d="M420 216C429.9 217.98 439.8 219.96 450 222C448.02 231.9 446.04 241.8 444 252C434.1 250.02 424.2 248.04 414 246C415.98 236.1 417.96 226.2 420 216Z" fill="#0590AF"/>
<path d="M462 252C474.375 254.625 474.375 254.625 486 258C484.02 267.9 482.04 277.8 480 288C470.1 286.02 460.2 284.04 450 282C455.25 258.75 455.25 258.75 462 252Z" fill="#048FAE"/>
<path d="M456 180C466.053 181.716 476.063 183.707 486 186C484.02 195.9 482.04 205.8 480 216C472.08 214.02 464.16 212.04 456 210C452.625 198.375 452.625 198.375 450 186C451.98 184.02 453.96 182.04 456 180Z" fill="#038EAD"/>
<path d="M498 216C510.375 218.625 510.375 218.625 522 222C520.02 231.9 518.04 241.8 516 252C508.08 250.02 500.16 248.04 492 246C492 222 492 222 498 216Z" fill="#028DAC"/>
<path d="M126 246C137.88 248.97 137.88 248.97 150 252C150 259.92 150 267.84 150 276C140.1 274.02 130.2 272.04 120 270C121.98 262.08 123.96 254.16 126 246Z" fill="#048FAE"/>
<path d="M150 222C159.9 222 169.8 222 180 222C180 229.92 180 237.84 180 246C170.1 246 160.2 246 150 246C150 238.08 150 230.16 150 222Z" fill="#0692B1"/>
<path d="M96 222C110.85 224.97 110.85 224.97 126 228C124.02 233.94 122.04 239.88 120 246C112.08 246 104.16 246 96 246C96 238.08 96 230.16 96 222Z" fill="#008AA9"/>
<path d="M126 192C133.92 193.98 141.84 195.96 150 198C148.02 205.92 146.04 213.84 144 222C138.06 222 132.12 222 126 222C126 212.1 126 202.2 126 192Z" fill="#018BAA"/>
</svg>
