<?xml version="1.0" encoding="UTF-8"?>
<svg version="1.1" xmlns="http://www.w3.org/2000/svg" width="100" height="100">
<path d="M0 0 C5.14338337 2.9958329 8.76038445 7.90615335 10.625 13.5 C10.74479145 15.45566503 10.80028496 17.41570766 10.8125 19.375 C10.82667969 20.40367188 10.84085938 21.43234375 10.85546875 22.4921875 C10.62081369 25.55463488 9.91684572 27.73248861 8.625 30.5 C9.5325 31.11875 10.44 31.7375 11.375 32.375 C15.59145406 35.82210107 16.96126607 40.45986486 18.625 45.5 C19.25148438 45.54898438 19.87796875 45.59796875 20.5234375 45.6484375 C21.34070313 45.72320312 22.15796875 45.79796875 23 45.875 C23.81210938 45.94460937 24.62421875 46.01421875 25.4609375 46.0859375 C27.625 46.5 27.625 46.5 29.625 48.5 C29.75 51.625 29.75 51.625 29.625 54.5 C27.975 54.83 26.325 55.16 24.625 55.5 C24.955 56.16 25.285 56.82 25.625 57.5 C25.71149451 59.98099734 25.74065054 62.43344928 25.72265625 64.9140625 C25.7212413 65.64370209 25.71982635 66.37334167 25.71836853 67.12509155 C25.71276531 69.45843585 25.70021235 71.79168464 25.6875 74.125 C25.68248541 75.70572778 25.67792243 77.28645707 25.67382812 78.8671875 C25.66279484 82.74482854 25.64552811 86.62239807 25.625 90.5 C23.47923363 90.52685938 21.33337355 90.54633088 19.1875 90.5625 C17.99253906 90.57410156 16.79757813 90.58570312 15.56640625 90.59765625 C12.625 90.5 12.625 90.5 11.625 89.5 C11.58419217 87.50041636 11.58245644 85.49954746 11.625 83.5 C10.36816406 83.74339111 10.36816406 83.74339111 9.0859375 83.99169922 C5.42327636 84.52962674 1.95127465 84.6295279 -1.75 84.6328125 C-2.78133057 84.63424759 -2.78133057 84.63424759 -3.83349609 84.63571167 C-5.27897229 84.63638847 -6.72445161 84.63456929 -8.16992188 84.63037109 C-10.36855976 84.62501569 -12.56699339 84.63033309 -14.765625 84.63671875 C-16.17708378 84.63605788 -17.58854243 84.63477653 -19 84.6328125 C-20.27101563 84.63168457 -21.54203125 84.63055664 -22.8515625 84.62939453 C-26.11941747 84.509386 -29.16866365 84.12091937 -32.375 83.5 C-32.354375 84.469375 -32.33375 85.43875 -32.3125 86.4375 C-32.375 89.5 -32.375 89.5 -33.375 90.5 C-35.56139453 90.57258946 -37.75000389 90.58373783 -39.9375 90.5625 C-41.73380859 90.54896484 -41.73380859 90.54896484 -43.56640625 90.53515625 C-44.95666016 90.51775391 -44.95666016 90.51775391 -46.375 90.5 C-46.39968646 85.83691801 -46.41785349 81.17387392 -46.42993164 76.51074219 C-46.43496588 74.92382139 -46.44179369 73.33690523 -46.45043945 71.75 C-46.46254482 69.47134251 -46.46823733 67.19274624 -46.47265625 64.9140625 C-46.47781754 64.20255035 -46.48297882 63.49103821 -46.48829651 62.75796509 C-46.48887171 57.72774341 -46.48887171 57.72774341 -45.375 55.5 C-47.025 55.17 -48.675 54.84 -50.375 54.5 C-50.5 51.625 -50.5 51.625 -50.375 48.5 C-48.375 46.5 -48.375 46.5 -46.38671875 46.47265625 C-45.61972656 46.50230469 -44.85273437 46.53195313 -44.0625 46.5625 C-41.60189532 46.48221094 -41.60189532 46.48221094 -39.375 45.5 C-37.64769477 42.82289778 -36.61525066 40.16134322 -35.50390625 37.1796875 C-34.12649353 33.91011959 -32.40078257 32.31546954 -29.375 30.5 C-29.69726562 29.79488281 -30.01953125 29.08976562 -30.3515625 28.36328125 C-32.53796592 22.24635872 -32.4633571 15.00927431 -29.75 9.0625 C-23.65383911 -1.29881939 -10.98468856 -4.78331332 0 0 Z " fill="#0477BC" transform="translate(60.375,3.5)"/>
<path d="M0 0 C5.14338337 2.9958329 8.76038445 7.90615335 10.625 13.5 C11.11501684 20.03041671 11.48796707 25.92015868 7.625 31.5 C5.9375 33.375 5.9375 33.375 4.625 34.5 C5.38167969 34.685625 6.13835937 34.87125 6.91796875 35.0625 C10.62152877 37.02918122 11.51405044 39.75921962 12.9375 43.5 C13.20111328 44.14195313 13.46472656 44.78390625 13.73632812 45.4453125 C15.625 50.13510552 15.625 50.13510552 15.625 52.5 C-1.535 52.5 -18.695 52.5 -36.375 52.5 C-31.18632075 36.93396226 -31.18632075 36.93396226 -27.6875 35.0625 C-26.924375 34.876875 -26.16125 34.69125 -25.375 34.5 C-26.5815625 33.1078125 -26.5815625 33.1078125 -27.8125 31.6875 C-31.82992148 27.05201367 -31.71681075 22.50908889 -31.65234375 16.578125 C-31.12284013 10.70138056 -28.81643493 6.52870168 -24.4375 2.625 C-17.24795834 -2.36366156 -8.18949725 -3.56613946 0 0 Z " fill="#FDC10B" transform="translate(60.375,3.5)"/>
<path d="M0 0 C1.72532014 1.02241193 3.4500977 2.04601172 5.16015625 3.09375 C8.41794477 4.69843564 11.52776202 4.6557284 15 4 C17.54062015 3.03728073 19.97445358 1.98101046 22.41015625 0.77734375 C26.07779469 -0.32350097 28.34374403 -0.13209761 32 1 C33.59202903 3.46437371 34.49468393 5.24259515 35.4375 7.9375 C35.69208984 8.58396484 35.94667969 9.23042969 36.20898438 9.89648438 C38 14.54540094 38 14.54540094 38 17 C20.84 17 3.68 17 -14 17 C-10.19047619 5.57142857 -10.19047619 5.57142857 -8 1 C-5.12063188 -0.43968406 -3.20992381 -0.302823 0 0 Z " fill="#B8DCFA" transform="translate(38,39)"/>
<path d="M0 0 C3.54813789 1.94787975 6.18410919 4.36821838 8 8 C8.52657873 13.28305214 8.64191122 17.66862857 6.3125 22.5 C2.26154219 26.87941385 -0.48525031 28.1935156 -6.4375 28.5 C-10.18276761 28.39904939 -12.60535952 28.1098855 -15.5625 25.75 C-19.87318144 20.88666709 -20.54685859 17.18783693 -20.4609375 10.76953125 C-19.72897489 6.37155249 -17.37436891 3.7799205 -14 1 C-9.76844833 -1.11577584 -4.58223826 -0.63707139 0 0 Z " fill="#FFDF7E" transform="translate(56,9)"/>
<path d="M0 0 C10.56 0 21.12 0 32 0 C29 9 29 9 26.8125 11.0390625 C23.17680234 12.2812592 19.79631414 12.43803843 16 12.375 C15.30132812 12.38660156 14.60265625 12.39820312 13.8828125 12.41015625 C9.40981869 12.38483742 6.31365817 12.08880279 3 9 C2.01 6.03 1.02 3.06 0 0 Z " fill="#414243" transform="translate(34,69)"/>
<path d="M0 0 C4.80641369 -0.46891841 7.10743645 0.61068316 11.16015625 3.09375 C14.42121045 4.70004422 17.52466756 4.64773221 21 4 C23.6049494 3.07592009 26.09965546 2.04087113 28.60546875 0.875 C31.22429851 -0.08196226 33.23414652 -0.15720659 36 0 C34.63880608 4.08358176 32.66807348 4.85452306 29 7 C23.08096274 9.75304058 15.89246895 10.25647084 9.65234375 8.2421875 C5.81705975 6.4213237 2.73503852 4.30483821 0 1 C0 0.67 0 0.34 0 0 Z " fill="#69B5EF" transform="translate(32,39)"/>
<path d="M0 0 C0 3.63 0 7.26 0 11 C-2.14576637 11.02685938 -4.29162645 11.04633088 -6.4375 11.0625 C-7.63246094 11.07410156 -8.82742187 11.08570312 -10.05859375 11.09765625 C-13 11 -13 11 -14 10 C-14.04080783 8.00041636 -14.04254356 5.99954746 -14 4 C-12.96875 3.71125 -11.9375 3.4225 -10.875 3.125 C-8.43157389 2.42971615 -6.03766339 1.67922113 -3.625 0.875 C-1 0 -1 0 0 0 Z " fill="#3F4243" transform="translate(86,83)"/>
<path d="M0 0 C2.14655501 0.30750371 4.29223285 0.6211366 6.4375 0.9375 C8.22994141 1.19853516 8.22994141 1.19853516 10.05859375 1.46484375 C13 2 13 2 14 3 C14.125 6 14.125 6 14 9 C13 10 13 10 10.05859375 10.09765625 C8.26615234 10.08025391 8.26615234 10.08025391 6.4375 10.0625 C4.64119141 10.04896484 4.64119141 10.04896484 2.80859375 10.03515625 C1.88175781 10.02355469 0.95492188 10.01195313 0 10 C0 6.7 0 3.4 0 0 Z " fill="#414243" transform="translate(14,84)"/>
<path d="M0 0 C0.66 0 1.32 0 2 0 C2 0.99 2 1.98 2 3 C3.32 3.66 4.64 4.32 6 5 C6 5.99 6 6.98 6 8 C5.01 8 4.02 8 3 8 C2.67 7.34 2.34 6.68 2 6 C1.34 6 0.68 6 0 6 C0.68885796 9.21061378 0.68885796 9.21061378 3.5625 10.375 C4.366875 10.91125 5.17125 11.4475 6 12 C6.3125 14.6875 6.3125 14.6875 6 17 C4.02 17.99 4.02 17.99 2 19 C2 19.99 2 20.98 2 22 C1.34 22 0.68 22 0 22 C0 21.01 0 20.02 0 19 C-1.32 18.67 -2.64 18.34 -4 18 C-4.33 16.68 -4.66 15.36 -5 14 C-3.68 14.33 -2.36 14.66 -1 15 C-1 15.66 -1 16.32 -1 17 C-0.01 16.67 0.98 16.34 2 16 C2 15.34 2 14.68 2 14 C1.01 13.401875 0.02 12.80375 -1 12.1875 C-1.99 11.465625 -2.98 10.74375 -4 10 C-4.375 7.25 -4.375 7.25 -4 5 C-2.68 4.34 -1.36 3.68 0 3 C0 2.01 0 1.02 0 0 Z " fill="#FFC311" transform="translate(49,12)"/>
<path d="M0 0 C0.90492187 0.02320313 1.80984375 0.04640625 2.7421875 0.0703125 C4.10730469 0.09738281 4.10730469 0.09738281 5.5 0.125 C6.19867188 0.14820313 6.89734375 0.17140625 7.6171875 0.1953125 C6.31943442 4.08857173 4.98828249 6.76063278 1.6171875 9.1953125 C-1.6328125 8.9453125 -1.6328125 8.9453125 -4.3828125 8.1953125 C-4.5078125 5.3203125 -4.5078125 5.3203125 -4.3828125 2.1953125 C-2.3828125 0.1953125 -2.3828125 0.1953125 0 0 Z " fill="#1365C0" transform="translate(14.3828125,49.8046875)"/>
<path d="M0 0 C1.62463842 -0.05395478 3.24978541 -0.09277195 4.875 -0.125 C5.77992187 -0.14820313 6.68484375 -0.17140625 7.6171875 -0.1953125 C10 0 10 0 12 2 C12.125 5.125 12.125 5.125 12 8 C9.3125 8.875 9.3125 8.875 6 9 C3.05391242 6.11938104 1.30510663 3.91531989 0 0 Z " fill="#1364C1" transform="translate(78,50)"/>
<path d="M0 0 C0 1.98 0 3.96 0 6 C-1.79133978 6.05391993 -3.58313899 6.09275571 -5.375 6.125 C-6.37273437 6.14820312 -7.37046875 6.17140625 -8.3984375 6.1953125 C-11 6 -11 6 -13 4 C-13 3.01 -13 2.02 -13 1 C-8.61414671 0.29826347 -4.44209357 -0.10834375 0 0 Z " fill="#A7D3F4" transform="translate(86,65)"/>
<path d="M0 0 C4.29 0.33 8.58 0.66 13 1 C12 5 12 5 11 6 C9.14712498 6.07226502 7.29166122 6.0838122 5.4375 6.0625 C4.42558594 6.05347656 3.41367187 6.04445313 2.37109375 6.03515625 C1.58863281 6.02355469 0.80617188 6.01195313 0 6 C0 4.02 0 2.04 0 0 Z " fill="#A8D3F4" transform="translate(14,65)"/>
<path d="M0 0 C1.32 0 2.64 0 4 0 C3.34 1.65 2.68 3.3 2 5 C0.35 4.67 -1.3 4.34 -3 4 C-1.75 2 -1.75 2 0 0 Z " fill="#1462C2" transform="translate(67,35)"/>
<path d="M0 0 C2.375 0.3125 2.375 0.3125 5 1 C5.66 1.99 6.32 2.98 7 4 C5.35 4.33 3.7 4.66 2 5 C1.34 3.35 0.68 1.7 0 0 Z " fill="#1462C1" transform="translate(29,35)"/>
</svg>
