<?xml version="1.0" encoding="UTF-8"?>
<svg version="1.1" xmlns="http://www.w3.org/2000/svg" width="100" height="100">
<path d="M0 0 C1.1016449 -0.01606293 2.20328979 -0.03212585 3.33831787 -0.04867554 C8.38374264 -0.09307976 13.42903491 -0.13419594 18.47460938 -0.15722656 C21.13669014 -0.17054996 23.796955 -0.20106092 26.45898438 -0.23925781 C30.29352933 -0.29400982 34.12703089 -0.3159002 37.96191406 -0.33056641 C39.74344879 -0.36457047 39.74344879 -0.36457047 41.56097412 -0.39926147 C50.77482288 -0.3756943 50.77482288 -0.3756943 54.46289062 2.60058594 C57.37801824 5.93745798 57.85365235 7.42154995 57.92041016 11.73095703 C57.93647308 12.67243591 57.95253601 13.61391479 57.96908569 14.58392334 C58.01354759 18.89659933 58.05460995 23.20912098 58.07763672 27.52197266 C58.09418691 29.79551435 58.12146431 32.06900422 58.15966797 34.34228516 C58.214486 37.62087999 58.23631999 40.89825442 58.25097656 44.17724609 C58.27364594 45.18994568 58.29631531 46.20264526 58.31967163 47.24603271 C58.30594056 51.84268961 58.28404617 55.15007692 55.31982422 58.81884766 C51.76348843 62.07575189 50.16537409 62.32343978 45.45507812 62.38574219 C44.35343323 62.40180511 43.25178833 62.41786804 42.11676025 62.43441772 C37.07133548 62.47882195 32.02604322 62.51993812 26.98046875 62.54296875 C24.31838799 62.55629215 21.65812312 62.58680311 18.99609375 62.625 C15.1615488 62.67975201 11.32804724 62.70164239 7.49316406 62.71630859 C5.71162933 62.75031265 5.71162933 62.75031265 3.894104 62.78500366 C-5.31974475 62.76143649 -5.31974475 62.76143649 -9.0078125 59.78515625 C-11.92294012 56.44828421 -12.39857423 54.96419223 -12.46533203 50.65478516 C-12.48139496 49.71330627 -12.49745789 48.77182739 -12.51400757 47.80181885 C-12.55846946 43.48914286 -12.59953182 39.1766212 -12.62255859 34.86376953 C-12.63910878 32.59022784 -12.66638619 30.31673797 -12.70458984 28.04345703 C-12.75940787 24.76486219 -12.78124187 21.48748776 -12.79589844 18.20849609 C-12.81856781 17.19579651 -12.84123718 16.18309692 -12.86459351 15.13970947 C-12.85086244 10.54305258 -12.82896804 7.23566526 -9.86474609 3.56689453 C-6.30841031 0.30999029 -4.71029596 0.0623024 0 0 Z " fill="#068E90" transform="translate(27.2724609375,18.80712890625)"/>
<path d="M0 0 C3.11450195 0.25488281 3.11450195 0.25488281 5.52539062 1.91064453 C7.46623169 4.77375037 7.59235721 6.32466029 7.5402832 9.76269531 C7.52771484 11.36757813 7.52771484 11.36757813 7.51489258 13.00488281 C7.48588867 14.11863281 7.45688477 15.23238281 7.42700195 16.37988281 C7.4125 18.01570313 7.4125 18.01570313 7.39770508 19.68457031 C7.3073326 26.25425653 6.89570361 32.73171131 6.11450195 39.25488281 C2.5309785 36.24666507 -0.90910955 33.27257562 -4.07299805 29.81738281 C-6.48757234 27.01175333 -6.48757234 27.01175333 -8.7956543 27.34082031 C-11.52074859 28.53273071 -13.08937866 30.16895746 -15.13549805 32.31738281 C-15.8419043 33.05085938 -16.54831055 33.78433594 -17.27612305 34.54003906 C-17.8072168 35.1059375 -18.33831055 35.67183594 -18.88549805 36.25488281 C-21.94327248 34.90045195 -23.92970962 33.40783546 -26.19799805 30.96191406 C-26.79870117 30.33220703 -27.3994043 29.7025 -28.01831055 29.05371094 C-29.26896248 27.72325799 -30.51372309 26.38724378 -31.75268555 25.04589844 C-32.35338867 24.42005859 -32.9540918 23.79421875 -33.57299805 23.14941406 C-34.11311523 22.5703833 -34.65323242 21.99135254 -35.2097168 21.39477539 C-36.83224119 20.03322277 -36.83224119 20.03322277 -38.93359375 20.43115234 C-41.97991269 21.71674085 -43.8106046 23.94136842 -46.07299805 26.31738281 C-47.66284045 27.97705724 -49.26332197 29.62679717 -50.88549805 31.25488281 C-51.21549805 31.25488281 -51.54549805 31.25488281 -51.88549805 31.25488281 C-52.00161199 27.00511235 -52.07272154 22.75574944 -52.13549805 18.50488281 C-52.16901367 17.29832031 -52.2025293 16.09175781 -52.23706055 14.84863281 C-52.24995117 13.68847656 -52.2628418 12.52832031 -52.27612305 11.33300781 C-52.29707031 10.26469727 -52.31801758 9.19638672 -52.33959961 8.09570312 C-51.88549805 5.25488281 -51.88549805 5.25488281 -50.47167969 2.91308594 C-46.50229725 0.3680047 -42.74130023 0.6516859 -38.1159668 0.64550781 C-37.16160233 0.62897156 -36.20723785 0.6124353 -35.22395325 0.59539795 C-32.1735709 0.54687264 -29.1236836 0.52556869 -26.07299805 0.50488281 C-24.03065498 0.47671703 -21.98833541 0.44678875 -19.94604492 0.41503906 C-15.35614818 0.34827693 -10.76656161 0.28434616 -6.17611694 0.28186035 C-4.11541144 0.25759059 -2.05642859 0.13489861 0 0 Z " fill="#C2E4EA" transform="translate(72.885498046875,23.7451171875)"/>
<path d="M0 0 C1.1016449 -0.01606293 2.20328979 -0.03212585 3.33831787 -0.04867554 C8.38374264 -0.09307976 13.42903491 -0.13419594 18.47460938 -0.15722656 C21.13669014 -0.17054996 23.796955 -0.20106092 26.45898438 -0.23925781 C30.29352933 -0.29400982 34.12703089 -0.3159002 37.96191406 -0.33056641 C39.74344879 -0.36457047 39.74344879 -0.36457047 41.56097412 -0.39926147 C50.77482288 -0.3756943 50.77482288 -0.3756943 54.46289062 2.60058594 C57.37801824 5.93745798 57.85365235 7.42154995 57.92041016 11.73095703 C57.93647308 12.67243591 57.95253601 13.61391479 57.96908569 14.58392334 C58.01354759 18.89659933 58.05460995 23.20912098 58.07763672 27.52197266 C58.09418691 29.79551435 58.12146431 32.06900422 58.15966797 34.34228516 C58.214486 37.62087999 58.23631999 40.89825442 58.25097656 44.17724609 C58.27364594 45.18994568 58.29631531 46.20264526 58.31967163 47.24603271 C58.30594056 51.84268961 58.28404617 55.15007692 55.31982422 58.81884766 C51.76348843 62.07575189 50.16537409 62.32343978 45.45507812 62.38574219 C44.35343323 62.40180511 43.25178833 62.41786804 42.11676025 62.43441772 C37.07133548 62.47882195 32.02604322 62.51993812 26.98046875 62.54296875 C24.31838799 62.55629215 21.65812312 62.58680311 18.99609375 62.625 C15.1615488 62.67975201 11.32804724 62.70164239 7.49316406 62.71630859 C5.71162933 62.75031265 5.71162933 62.75031265 3.894104 62.78500366 C-5.31974475 62.76143649 -5.31974475 62.76143649 -9.0078125 59.78515625 C-11.92294012 56.44828421 -12.39857423 54.96419223 -12.46533203 50.65478516 C-12.48139496 49.71330627 -12.49745789 48.77182739 -12.51400757 47.80181885 C-12.55846946 43.48914286 -12.59953182 39.1766212 -12.62255859 34.86376953 C-12.63910878 32.59022784 -12.66638619 30.31673797 -12.70458984 28.04345703 C-12.75940787 24.76486219 -12.78124187 21.48748776 -12.79589844 18.20849609 C-12.81856781 17.19579651 -12.84123718 16.18309692 -12.86459351 15.13970947 C-12.85086244 10.54305258 -12.82896804 7.23566526 -9.86474609 3.56689453 C-6.30841031 0.30999029 -4.71029596 0.0623024 0 0 Z M36.97314453 5.23706055 C32.20690701 5.29407189 27.44112864 5.37151642 22.67529297 5.45532227 C20.62329087 5.48874515 18.57119297 5.51672162 16.51904297 5.53930664 C13.54387752 5.57285041 10.56954291 5.62511419 7.59472656 5.68115234 C6.68004608 5.68754227 5.7653656 5.69393219 4.82296753 5.70051575 C1.20414362 5.78400812 -1.87158021 6.07290901 -5.34985352 7.11376953 C-8.54816996 10.57241878 -7.96574355 14.43308726 -7.90136719 18.97021484 C-7.90377914 19.93310928 -7.9061911 20.89600372 -7.90867615 21.88807678 C-7.90769649 23.92485673 -7.89427457 25.96166291 -7.86938477 27.99829102 C-7.83512433 31.1155049 -7.84870717 34.22987765 -7.86816406 37.34716797 C-7.86126445 39.32569566 -7.85159102 41.30421603 -7.83886719 43.28271484 C-7.84382706 44.21510483 -7.84878693 45.14749481 -7.85389709 46.10813904 C-7.83806076 46.97906693 -7.82222443 47.84999481 -7.8059082 48.74731445 C-7.79970963 49.51103867 -7.79351105 50.27476288 -7.78712463 51.06163025 C-7.05140237 54.10828257 -5.73712423 55.30406632 -3.27246094 57.19287109 C-0.81138267 57.79270848 -0.81138267 57.79270848 1.89160156 57.71044922 C2.91946777 57.72305786 3.94733398 57.7356665 5.00634766 57.74865723 C6.11059082 57.7405603 7.21483398 57.73246338 8.35253906 57.72412109 C9.49158691 57.727948 10.63063477 57.7317749 11.80419922 57.73571777 C14.21159754 57.73843884 16.61902532 57.7310642 19.02636719 57.71435547 C22.71388589 57.69295035 26.39945606 57.71415242 30.08691406 57.73974609 C32.42546004 57.73710285 34.76400479 57.73197796 37.10253906 57.72412109 C38.75890381 57.73626648 38.75890381 57.73626648 40.44873047 57.74865723 C41.47659668 57.73604858 42.50446289 57.72343994 43.56347656 57.71044922 C44.46630371 57.70726685 45.36913086 57.70408447 46.29931641 57.70080566 C49.54763691 57.02132338 50.7347332 55.80920251 52.72753906 53.19287109 C53.3232883 51.05875256 53.3232883 51.05875256 53.24511719 48.76318359 C53.25772583 47.8954834 53.27033447 47.0277832 53.2833252 46.13378906 C53.27522827 45.20453613 53.26713135 44.2752832 53.25878906 43.31787109 C53.26261597 42.3563916 53.26644287 41.39491211 53.27038574 40.40429688 C53.27310509 38.37352449 53.26574235 36.3427171 53.24902344 34.31201172 C53.22761431 31.20379539 53.24882453 28.09789054 53.27441406 24.98974609 C53.27177079 23.01578266 53.26664583 21.04182066 53.25878906 19.06787109 C53.26688599 18.13861816 53.27498291 17.20936523 53.2833252 16.25195312 C53.22712478 12.38435875 53.17087524 9.92000754 51.13183594 6.57568359 C46.75214642 4.0567395 41.87422409 5.21653798 36.97314453 5.23706055 Z " fill="#A5A4B4" transform="translate(27.2724609375,18.80712890625)"/>
<path d="M0 0 C1.1016449 -0.01606293 2.20328979 -0.03212585 3.33831787 -0.04867554 C8.38374264 -0.09307976 13.42903491 -0.13419594 18.47460938 -0.15722656 C21.13669014 -0.17054996 23.796955 -0.20106092 26.45898438 -0.23925781 C30.29352933 -0.29400982 34.12703089 -0.3159002 37.96191406 -0.33056641 C39.74344879 -0.36457047 39.74344879 -0.36457047 41.56097412 -0.39926147 C50.77482288 -0.3756943 50.77482288 -0.3756943 54.46289062 2.60058594 C57.37801824 5.93745798 57.85365235 7.42154995 57.92041016 11.73095703 C57.93647308 12.67243591 57.95253601 13.61391479 57.96908569 14.58392334 C58.01354759 18.89659933 58.05460995 23.20912098 58.07763672 27.52197266 C58.09418691 29.79551435 58.12146431 32.06900422 58.15966797 34.34228516 C58.214486 37.62087999 58.23631999 40.89825442 58.25097656 44.17724609 C58.27364594 45.18994568 58.29631531 46.20264526 58.31967163 47.24603271 C58.30594056 51.84268961 58.28404617 55.15007692 55.31982422 58.81884766 C51.76348843 62.07575189 50.16537409 62.32343978 45.45507812 62.38574219 C44.35343323 62.40180511 43.25178833 62.41786804 42.11676025 62.43441772 C37.07133548 62.47882195 32.02604322 62.51993812 26.98046875 62.54296875 C24.31838799 62.55629215 21.65812312 62.58680311 18.99609375 62.625 C15.1615488 62.67975201 11.32804724 62.70164239 7.49316406 62.71630859 C5.71162933 62.75031265 5.71162933 62.75031265 3.894104 62.78500366 C-5.31974475 62.76143649 -5.31974475 62.76143649 -9.0078125 59.78515625 C-11.92294012 56.44828421 -12.39857423 54.96419223 -12.46533203 50.65478516 C-12.48139496 49.71330627 -12.49745789 48.77182739 -12.51400757 47.80181885 C-12.55846946 43.48914286 -12.59953182 39.1766212 -12.62255859 34.86376953 C-12.63910878 32.59022784 -12.66638619 30.31673797 -12.70458984 28.04345703 C-12.75940787 24.76486219 -12.78124187 21.48748776 -12.79589844 18.20849609 C-12.81856781 17.19579651 -12.84123718 16.18309692 -12.86459351 15.13970947 C-12.85086244 10.54305258 -12.82896804 7.23566526 -9.86474609 3.56689453 C-6.30841031 0.30999029 -4.71029596 0.0623024 0 0 Z M-9.27246094 7.19287109 C-9.60246094 7.52287109 -9.93246094 7.85287109 -10.27246094 8.19287109 C-10.38071869 9.54205859 -10.42145525 10.89677478 -10.43359375 12.25024414 C-10.44320129 13.11171555 -10.45280884 13.97318695 -10.46270752 14.86076355 C-10.4669574 15.79922623 -10.47120728 16.7376889 -10.47558594 17.70458984 C-10.48128601 18.66557083 -10.48698608 19.62655182 -10.49285889 20.61665344 C-10.50232749 22.65694065 -10.50885021 24.69724328 -10.51269531 26.73754883 C-10.52236621 29.84988473 -10.55335768 32.96155072 -10.58496094 36.07373047 C-10.59149421 38.05484633 -10.59674341 40.03596693 -10.60058594 42.01708984 C-10.61293274 42.94543137 -10.62527954 43.87377289 -10.63800049 44.83024597 C-10.62023147 50.02419614 -10.25598547 53.73812115 -7.27246094 58.19287109 C-4.00296843 60.37253277 -3.0427935 60.44811026 0.74633789 60.4675293 C1.76782425 60.47706131 2.78931061 60.48659332 3.8417511 60.49641418 C5.49644661 60.49504707 5.49644661 60.49504707 7.18457031 60.49365234 C8.88814949 60.50008003 8.88814949 60.50008003 10.62614441 60.50663757 C13.03111097 60.51238489 15.43609492 60.5128782 17.84106445 60.50854492 C21.51511483 60.50539248 25.18835435 60.52881404 28.86230469 60.55419922 C31.19889221 60.55647295 33.5354819 60.55717536 35.87207031 60.55615234 C36.96912796 60.56536209 38.06618561 60.57457184 39.19648743 60.58406067 C46.92282076 60.58117504 46.92282076 60.58117504 53.72753906 57.19287109 C56.60005752 52.80186581 56.06905699 47.33452593 56.09863281 42.25537109 C56.10766129 41.29767822 56.11668976 40.33998535 56.12599182 39.35327148 C56.14046936 37.33271399 56.14937484 35.31210988 56.15307617 33.29150391 C56.16499942 30.2031384 56.21423199 27.1167544 56.26464844 24.02880859 C56.27411026 22.06267248 56.28134644 20.09652414 56.28613281 18.13037109 C56.30566513 17.2094165 56.32519745 16.28846191 56.34532166 15.33959961 C56.31346443 10.80874767 56.2155745 8.82876376 53.38012695 5.13427734 C49.7319549 2.46421161 47.09369527 2.06274328 42.69287109 2 C41.66815704 1.98393707 40.64344299 1.96787415 39.587677 1.95132446 C34.91148587 1.90683958 30.23543516 1.86582808 25.55908203 1.84277344 C23.0915383 1.82619529 20.62404295 1.79888126 18.15673828 1.76074219 C14.59935594 1.7060425 11.0430975 1.684111 7.48535156 1.66943359 C6.38313263 1.64676422 5.2809137 1.62409485 4.14529419 1.60073853 C-2.2684505 1.61846799 -5.42503408 1.86732513 -9.27246094 7.19287109 Z " fill="#20222C" transform="translate(27.2724609375,18.80712890625)"/>
<path d="M0 0 C3.13011458 1.60009589 5.3760084 4.00062689 7.78125 6.5078125 C8.27947266 7.01119141 8.77769531 7.51457031 9.29101562 8.03320312 C12.47909696 11.29049654 13.98086274 12.85113008 14.40625 17.4453125 C14.09375 21.0703125 14.09375 21.0703125 12.59375 23.5078125 C9.13238282 25.67116699 6.01574495 25.88362736 2.09375 25.0703125 C-0.68082068 23.36252508 -2.7640505 21.20087821 -4.96875 18.8203125 C-5.56107422 18.23378906 -6.15339844 17.64726563 -6.76367188 17.04296875 C-9.92394417 13.76864705 -9.92394417 13.76864705 -10.90625 12.0703125 C-10.46829058 8.28822008 -8.7292004 6.43237905 -6.09375 3.7578125 C-5.06314453 2.68080078 -5.06314453 2.68080078 -4.01171875 1.58203125 C-1.90625 0.0703125 -1.90625 0.0703125 0 0 Z " fill="#4EB096" transform="translate(64.90625,49.9296875)"/>
<path d="M0 0 C1.8125 1.1875 1.8125 1.1875 3 3 C3.4334014 5.88934264 3.42525784 7.35092224 1.8125 9.8125 C-0.64907776 11.42525784 -2.11065736 11.4334014 -5 11 C-6.8125 9.8125 -6.8125 9.8125 -8 8 C-8.4334014 5.11065736 -8.42525784 3.64907776 -6.8125 1.1875 C-4.35092224 -0.42525784 -2.88934264 -0.4334014 0 0 Z " fill="#B5AA53" transform="translate(69,32)"/>
<path d="M0 0 C0.556875 0.268125 1.11375 0.53625 1.6875 0.8125 C0.6975 1.4725 -0.2925 2.1325 -1.3125 2.8125 C-2.03632467 4.87175139 -2.03632467 4.87175139 -2.3125 6.8125 C-3.6325 6.8125 -4.9525 6.8125 -6.3125 6.8125 C-6.9725 7.8025 -7.6325 8.7925 -8.3125 9.8125 C-8.00654824 6.24306285 -7.28825359 4.78235581 -5 1.9375 C-2.3125 -0.1875 -2.3125 -0.1875 0 0 Z " fill="#989AA9" transform="translate(25.3125,21.1875)"/>
</svg>
